<?xml version="1.0" encoding="utf-8"?>
<!-- Generator: Adobe Illustrator 18.1.1, SVG Export Plug-In . SVG Version: 6.00 Build 0)  -->
<svg version="1.1" id="Layer_1" xmlns="http://www.w3.org/2000/svg" xmlns:xlink="http://www.w3.org/1999/xlink" x="0px" y="0px"
	 viewBox="0 0 612 417" enable-background="new 0 0 612 417" xml:space="preserve">
<g opacity="0.5">
	<path fill="none" stroke="#6A69B0" stroke-width="0.1" d="M-0.7,136.6c42.7,15.2,96.6,21.5,149.9,25.5c36.5,2.8,70.4,5,98.4,11.2
		c23.3,5.2,41.8,14.6,45.6,26.6c3.9,12.5-6.1,28-23,41.8c-19.4,15.8-46.3,29.6-77.2,40.1c-31.2,10.6-64.5,17-96,17.1
		c-28.6,0.1-55.1-5.8-70-17.6c-13.9-11-16.6-28.4-7.1-43.4c10.6-16.8,34-31.5,63.3-40.6c63.6-19.7,146.1-10,203.8,19.2
		c26.6,13.5,46.7,29.5,58.6,45.1c9.4,12.2,12.8,24.5,5.8,27.2c-7.5,2.9-22.2-6-36.3-18.9c-18.6-17-35.9-39.6-52-65.3
		c-16.5-26.5-29.6-52.8-38.9-76.7c-4-10.4-7-19.7-8.9-27.6c-1.5-6.4-2.3-11.5-1.1-14.7c0.7-1.9,3.8-2.2,6.4-0.5
		c4,2.6,8.2,7.1,13.2,12.7c12.7,14.3,27,32.6,45.6,52.5c40.9,43.5,98.2,84.9,171.2,97.9c36.9,6.5,76.5,6.3,114.6,1.4
		c15.9-2,31.2-4.7,45.8-7.9 M611,260.9c-20.9,8.8-42.2,17.3-63.5,24.8c-14.1,5.1-27.7,9.4-40.5,13.1c-11.6,3.3-22,5.8-31.1,7.4
		c-7.4,1.3-13.4,2-17.4,1.2c-2.4-0.4-2.8-2.5-0.6-4.1c3.4-2.5,9.5-4.9,17.4-7.3c9.5-2.8,20.9-5.3,34-7.1c29.9-4.2,65-4.8,101.2,0.4
		c0.1,0,0.2,0,0.3,0 M595.4,367.4c-7.7-20.5-11-40.3-8.9-57.9c2-16.6,10.8-30.8,24.5-36.9"/>
	<path fill="none" stroke="#6A69B0" stroke-width="0.1" d="M-0.7,132.4c41.9,16.1,95.5,22.9,148.6,27.4c35.3,3,68.1,5.6,95.2,12
		c22.7,5.4,40.7,14.8,44.6,26.7c4,12.4-5.4,27.8-21.5,41.4c-18.5,15.6-44.4,29.3-74.2,39.8c-30,10.5-62.2,17.1-92.6,17.5
		c-27.6,0.4-53.3-5-67.8-16.2c-13.5-10.4-16.2-27-7.2-41.3c10.1-16.1,32.7-30.3,60.9-39c61.4-19.1,141.2-10,197.5,17.9
		c26,12.9,45.6,28.2,57.4,43.2c9.3,11.7,13,23.4,6.5,25.8c-7,2.6-20.8-6.2-34.1-18.9c-17.6-16.7-34-38.8-49.3-63.9
		c-15.7-25.9-28-51.6-36.6-75.1c-3.7-10.3-6.6-19.4-8.1-27.2c-1.3-6.4-1.9-11.4-0.6-14.7c0.8-2,4-2.4,6.6-0.9
		c4.1,2.4,8.3,6.7,13.3,12c12.7,13.7,26.9,31.5,45.2,50.7c40.4,42.3,96.7,82.8,168.3,95.7c36.2,6.5,75,6.4,112.4,1.9
		c16.5-2,32.2-4.7,47.3-7.9 M611,260.9c-20.5,8.8-41.4,17.3-62.4,24.9c-13.9,5-27.2,9.5-39.7,13.2c-11.3,3.3-21.6,6-30.5,7.6
		c-7.3,1.4-13.2,2.1-17.1,1.5c-2.3-0.3-2.8-2.3-0.6-3.8c3.3-2.4,9.2-4.6,16.9-6.9c9.3-2.7,20.5-5,33.3-6.8c29.3-4,63.7-4.6,99.3,0.6
		c0.2,0,0.5,0.1,0.7,0.1 M597.2,367.4c-7.5-20.3-10.8-39.9-8.6-57.3c1.9-15.7,9.9-29.3,22.5-35.9"/>
	<path fill="none" stroke="#6A69B0" stroke-width="0.1" d="M-0.7,128.1c41.1,17,94.5,24.3,147.4,29.5c34.1,3.3,65.8,6.1,92.1,12.7
		c22.1,5.5,39.6,15.1,43.5,26.9c4.1,12.3-4.8,27.5-20.2,41c-17.6,15.4-42.5,29-71.2,39.5c-28.9,10.5-59.9,17.2-89.3,17.9
		c-26.6,0.6-51.4-4.2-65.6-14.8c-13.1-9.8-15.8-25.7-7.2-39.3c9.7-15.4,31.4-29,58.6-37.5c59.3-18.5,136.5-9.9,191.3,16.7
		c25.3,12.3,44.4,27,56.2,41.3c9.2,11.1,13.1,22.2,7.1,24.4c-6.6,2.3-19.5-6.5-32.1-18.9c-16.6-16.5-32.2-38.1-46.6-62.6
		c-14.8-25.3-26.5-50.5-34.4-73.6c-3.5-10.1-6-19-7.4-26.8c-1.1-6.3-1.5-11.4-0.1-14.7c0.9-2.1,4.2-2.6,6.9-1.2
		c4.1,2.2,8.4,6.3,13.4,11.4c12.7,13.2,26.7,30.4,44.9,49c40,41.2,95.3,80.6,165.6,93.4c35.6,6.5,73.6,6.5,110.3,2.2
		c16.9-2,33.1-4.7,48.5-7.9 M611,260.8c-20.2,8.9-40.8,17.4-61.5,25.1c-26.4,9.8-49.7,17.2-68.8,21c-7.2,1.4-12.9,2.2-16.8,1.8
		c-2.3-0.3-2.7-2-0.6-3.4c3.3-2.2,9.1-4.4,16.6-6.5c9.1-2.6,20.1-4.8,32.7-6.5c28.7-3.8,62.6-4.3,97.6,0.8c0.3,0,0.6,0.1,0.8,0.1
		 M598.9,367.4c-7.4-20.1-10.5-39.6-8.3-57c1.9-14.7,9.1-27.6,20.4-34.6"/>
	<path fill="none" stroke="#6A69B0" stroke-width="0.1" d="M-0.7,123.7c40.4,17.9,93.6,25.9,146.3,31.7c32.9,3.6,63.6,6.7,88.9,13.4
		c21.5,5.7,38.4,15.3,42.4,27.1c4.1,12.2-4.2,27.2-19,40.7c-16.8,15.2-40.8,28.7-68.4,39.1c-27.8,10.5-57.6,17.2-86,18.2
		c-25.6,0.9-49.6-3.5-63.3-13.4c-12.6-9.2-15.3-24.3-7.1-37.3c9.4-14.8,30.2-27.8,56.4-35.9c57.3-17.8,131.8-9.7,185.1,15.7
		c24.5,11.7,43.2,25.8,54.8,39.4c9,10.5,13.1,21.1,7.6,22.9c-6.3,2-18.2-6.9-30.1-19.1c-15.6-16.2-30.4-37.4-43.9-61.4
		c-13.9-24.8-24.8-49.4-32.1-72c-3.2-9.9-5.5-18.7-6.6-26.3c-0.9-6.3-1.1-11.3,0.5-14.6c1-2.1,4.4-2.8,7.2-1.4
		c4.2,2,8.5,5.9,13.5,10.9c12.7,12.7,26.7,29.3,44.6,47.4c39.7,40,94,78.4,163,91c34.9,6.4,72.2,6.5,108.2,2.5
		c17.3-1.9,33.8-4.7,49.4-7.9 M611,260.7c-19.9,9-40.4,17.5-60.8,25.3c-25.8,9.8-48.7,17.3-67.3,21.2c-7,1.5-12.6,2.4-16.4,2
		c-2.2-0.2-2.6-1.8-0.5-3.1c3.3-2.1,8.9-4.1,16.4-6.2c9-2.5,19.7-4.6,32.1-6.2c28.3-3.6,61.5-3.9,95.8,1.2c0.2,0,0.5,0.1,0.7,0.1
		 M600.6,367.4c-7.2-20-10.2-39.5-7.9-56.7c1.8-13.7,8.3-25.7,18.3-32.9"/>
	<path fill="none" stroke="#6A69B0" stroke-width="0.1" d="M-0.7,119.3c39.6,19,92.7,27.6,145.3,34c31.7,3.9,61.4,7.3,85.8,14.2
		c20.9,5.9,37.3,15.5,41.2,27.3c4.1,12.2-3.6,27-17.8,40.3c-16,15-39,28.4-65.5,38.8c-26.7,10.4-55.4,17.3-82.8,18.5
		c-24.6,1.1-47.7-2.8-60.9-12.1c-12.1-8.6-14.8-23-6.9-35.4c9-14.1,29.1-26.5,54.3-34.3c55.3-17.2,127.2-9.5,179,14.8
		c23.8,11.2,42,24.5,53.5,37.5c8.8,10,13.1,20,8,21.4c-6.1,1.7-17-7.2-28.2-19.4c-14.8-16-28.6-36.7-41.3-60.2
		c-13.1-24.2-23.2-48.3-29.8-70.4c-2.9-9.7-4.9-18.3-5.7-25.8c-0.7-6.2-0.7-11.1,1.1-14.4c1.2-2.2,4.6-2.9,7.6-1.6
		c4.2,1.9,8.6,5.6,13.6,10.4c12.8,12.2,26.6,28.3,44.4,45.9c39.4,38.8,92.8,76.2,160.6,88.6c34.2,6.3,70.8,6.5,106.1,2.7
		c17.5-1.9,34.3-4.6,50.1-7.8 M611,260.7c-19.8,9.1-40,17.8-60.3,25.6c-25.2,9.8-47.5,17.2-65.7,21.3c-6.8,1.5-12.2,2.4-15.9,2.2
		c-2-0.1-2.4-1.6-0.4-2.8c3.3-2,8.9-3.9,16.2-5.8c8.8-2.3,19.5-4.3,31.6-5.8c27.8-3.4,60.5-3.6,94.2,1.6c0.1,0,0.2,0,0.3,0
		 M602.3,367.4c-7.1-20-10-39.4-7.6-56.7c1.8-12.5,7.5-23.7,16.3-30.9"/>
	<path fill="none" stroke="#6A69B0" stroke-width="0.1" d="M-0.7,114.6c38.8,20.1,91.9,29.4,144.4,36.4c30.6,4.1,59.2,7.8,82.7,14.9
		c20.2,6.1,36.1,15.8,40,27.5c8.6,25.5-29.6,58.1-79.5,78.4c-25.6,10.4-53.2,17.3-79.5,18.8c-23.6,1.4-45.9-2.1-58.6-10.9
		c-11.6-8-14.1-21.7-6.6-33.5c8.7-13.4,28-25.3,52.3-32.8c53.4-16.4,122.7-9.2,173,14c23.1,10.7,40.8,23.4,52.1,35.6
		c8.7,9.4,12.9,18.8,8.4,19.8c-5.9,1.3-15.8-7.7-26.3-19.7c-13.9-15.8-26.9-36.1-38.7-59.1c-12.2-23.7-21.6-47.2-27.5-68.8
		c-2.6-9.5-4.3-17.9-4.9-25.3c-0.5-6.1-0.3-11,1.6-14.2c2.3-3.8,12.6-0.1,21.7,8.2c12.8,11.7,26.6,27.4,44.2,44.4
		c39,37.7,91.7,73.9,158.2,86.1c33.6,6.1,69.4,6.4,104,2.9c17.7-1.8,34.6-4.5,50.6-7.6 M611,260.6c-19.6,9.2-39.8,18.1-60,26
		c-24.6,9.8-46.4,17.2-64.1,21.3c-6.6,1.5-11.8,2.5-15.4,2.4c-1.9-0.1-2.2-1.5-0.1-2.6c3.3-1.9,8.9-3.7,16.1-5.5
		c8.7-2.2,19.2-4.1,31.2-5.5c27.3-3.1,59.3-3.2,92.3,1.9 M604,367.4c-7-20.1-9.8-39.5-7.2-56.7c1.7-11.3,6.7-21.4,14.2-28.5"/>
	<path fill="none" stroke="#6A69B0" stroke-width="0.1" d="M-0.7,109.9c38,21.3,91,31.3,143.5,39.1c29.4,4.4,57,8.4,79.7,15.7
		c19.6,6.3,34.9,16.1,38.8,27.7c8.5,25.2-27.8,57.5-75.7,77.7c-24.5,10.3-51,17.3-76.3,19.1c-22.7,1.6-44-1.4-56.3-9.7
		c-11.2-7.5-13.5-20.5-6.3-31.6c8.4-12.8,27-24.1,50.4-31.2c51.6-15.7,118.2-8.8,167,13.2c42.2,19.1,72.1,50.2,59.4,52
		c-5.8,0.8-14.6-8.1-24.5-20c-13-15.6-25.2-35.6-36.2-58c-11.4-23.2-20-46.2-25.2-67.2c-2.3-9.3-3.7-17.5-4.1-24.7
		c-0.3-5.9,0.1-10.8,2.2-13.9c2.6-3.9,13.1-0.3,22.3,7.6c12.9,11.3,26.6,26.4,44.1,42.9c38.7,36.6,90.7,71.7,156,83.6
		c33,6,68.1,6.4,102,3c17.8-1.7,34.9-4.4,50.9-7.4 M611,260.5c-19.6,9.4-39.7,18.4-59.8,26.5c-24,9.7-45.2,17.1-62.4,21.4
		c-6.4,1.6-11.4,2.6-14.8,2.5c-1.8,0-1.9-1.3,0.1-2.3c3.4-1.8,8.9-3.5,16.1-5.2c8.7-2.1,19-3.9,30.8-5.1c26.7-2.9,57.8-2.8,90,2.3
		 M605.6,367.4c-7-20.2-9.6-39.7-6.8-56.9c1.7-10,5.9-19,12.1-25.8"/>
	<path fill="none" stroke="#6A69B0" stroke-width="0.1" d="M-0.7,105c36.9,22.5,89.7,33.3,142,41.8c28.3,4.6,54.9,8.9,76.8,16.3
		c19.1,6.4,34,16.1,38.2,27.7c8.9,24.8-24.9,56.7-70.7,77c-23.4,10.4-48.8,17.5-73.4,19.8c-21.9,2-42.8-0.4-55.1-7.9
		C46,272.9,43,260.6,49.5,250c7.5-12.3,25.1-23.2,47.3-30.4c49.4-15.8,114.2-10,162.5,10.7c22.3,9.6,39.6,21.2,51.2,32.5
		c8.9,8.7,14.5,17.3,10.6,18.4c-4.6,1.4-13.1-7.2-22.3-18.4c-12.3-15-24.1-34.3-34.8-56.2c-11.2-22.9-19.7-45.7-25.1-66.9
		c-2.4-9.4-3.9-17.9-4.4-25.4c-0.4-6.3-0.1-11.4,1.8-15c2.3-4.3,12.4-2,21.1,5.3c12.5,10.5,25.8,25.2,42.7,41.4
		c37.9,36.3,88.4,72.1,153.1,85.1c32.7,6.6,67.7,7.5,101.8,4.7c19.6-1.7,38.4-4.5,56-7.8 M611,260.5c-18.3,8.7-37.2,17.1-56.2,24.8
		c-24.7,10-46.8,17.8-65.1,22.3c-7,1.7-12.6,2.8-16.6,2.9c-2.3,0.1-3.1-1.2-1.6-2.2c2.8-1.8,7.8-3.5,14.5-5.3
		c8.2-2.2,18.2-4.1,29.7-5.6c26.6-3.4,58.1-3.8,91,0.8c1.4,0.2,2.8,0.4,4.2,0.6 M603.5,367.4c-6.7-18.9-9.5-37.3-7.6-54
		c1.5-12.8,6.7-24.3,15.1-32"/>
	<path fill="none" stroke="#6A69B0" stroke-width="0.1" d="M-0.7,99.8c36,23.9,88.8,35.5,141,44.9c27.2,4.9,52.8,9.5,73.9,17
		c18.5,6.6,32.9,16.4,37.1,27.9c8.9,24.5-23,56-66.8,76.4c-22.3,10.4-46.7,17.6-70.3,20.2c-21,2.2-41,0.3-53-6.7
		c-10.7-6.2-13.7-17.8-7.6-27.9c7.1-11.7,23.9-22.1,45.2-28.9c47.4-15.2,109.8-9.9,156.8,9.7c21.7,9.1,38.6,20,50.2,30.7
		c8.9,8.2,14.8,16.2,11.3,17.2c-4.4,1.1-11.8-7.4-20.4-18.4c-11.5-14.7-22.5-33.5-32.5-55c-10.4-22.4-18.4-44.8-23.2-65.6
		c-2.2-9.3-3.5-17.7-3.8-25c-0.2-6.2,0.2-11.4,2.2-15c2.5-4.5,12.7-2.6,21.3,4.3c12.5,10,25.6,24.2,42.3,39.9
		c37.5,35.3,87,70.3,150.6,83.3c32.1,6.6,66.5,7.7,100.1,5.1c20.1-1.6,39.3-4.4,57.3-7.7 M611,260.4c-18,8.7-36.6,17.1-55.3,24.8
		c-24.3,10-46.2,17.8-64.2,22.5c-6.9,1.8-12.4,2.9-16.4,3.1c-2.3,0.1-3.2-1-1.7-1.9c2.7-1.7,7.6-3.3,14.2-5c8.1-2.1,17.8-4,29.1-5.4
		c26.1-3.3,57.1-3.7,89.6,0.9c1.6,0.2,3.2,0.5,4.8,0.7 M604.7,367.4c-6.5-18.7-9.3-36.9-7.5-53.4c1.4-12.2,6.1-23.3,13.8-31"/>
	<path fill="none" stroke="#6A69B0" stroke-width="0.1" d="M-0.7,94.5c35,25.4,87.8,37.9,140.1,48.2c26.1,5.1,50.7,10,70.9,17.6
		c17.9,6.8,31.8,16.6,35.9,28c8.9,24.3-21.2,55.3-63,75.7c-21.3,10.3-44.5,17.7-67.2,20.5c-20.1,2.5-39.2,1-50.8-5.4
		c-10.2-5.7-13.3-16.6-7.5-26c6.8-11,22.7-21,43.1-27.5c45.5-14.6,105.5-9.8,151.2,8.7c21.1,8.5,37.6,18.9,49.1,29
		c8.8,7.7,15,15.3,11.9,15.9c-4.2,0.8-10.6-7.6-18.5-18.3c-10.7-14.5-20.9-32.8-30.2-53.8c-9.7-21.9-17.1-43.8-21.3-64.2
		c-1.9-9.1-3-17.4-3.1-24.7c-0.1-6.2,0.5-11.3,2.6-15c2.7-4.7,12.9-3.1,21.5,3.4c12.5,9.5,25.5,23.2,41.9,38.4
		c37.2,34.3,85.7,68.5,148.1,81.5c31.5,6.6,65.4,7.9,98.3,5.5c20.6-1.5,40.3-4.3,58.7-7.6 M611,260.3c-17.7,8.7-35.9,17.1-54.3,24.8
		c-24,10-45.5,17.9-63.3,22.7c-6.8,1.8-12.3,3.1-16.3,3.3c-2.3,0.2-3.2-0.8-1.8-1.6c2.6-1.6,7.4-3.1,13.8-4.8
		c7.9-2,17.5-3.8,28.6-5.2c25.7-3.1,56.2-3.5,88.1,1c1.8,0.2,3.5,0.5,5.3,0.8 M605.8,367.4c-6.4-18.5-9.1-36.5-7.3-52.8
		c1.3-11.6,5.6-22.2,12.5-29.8"/>
	<path fill="none" stroke="#6A69B0" stroke-width="0.1" d="M-0.7,88.9c0.4,0.3,0.7,0.6,1.1,0.8c33.9,26.5,86.4,39.7,138.2,50.9
		c48.4,10.4,94.2,23.3,102.8,46.5c8.8,24.1-19.4,54.7-59.3,75c-20.2,10.3-42.4,17.7-64.1,20.8c-19.2,2.8-37.5,1.7-48.7-4.1
		c-9.8-5.1-12.9-15.4-7.5-24.2c6.4-10.4,21.6-19.8,41-26.1c43.7-14,101.2-9.7,145.6,7.7c20.4,8,36.6,17.8,48,27.3
		c8.7,7.2,15.3,14.4,12.5,14.7c-4,0.4-9.4-7.7-16.7-18.3c-9.8-14.2-19.4-32.1-27.9-52.6c-8.9-21.4-15.7-42.9-19.4-62.9
		c-1.7-9-2.6-17.2-2.5-24.4c0.1-6.1,0.8-11.3,3-15c2.9-4.9,13.1-3.6,21.8,2.5c12.4,9,25.3,22.2,41.5,36.9
		c36.8,33.3,84.4,66.7,145.7,79.8c31,6.6,64.2,8,96.6,5.9c21.2-1.4,41.3-4.1,60.1-7.4 M611,260.3c-17.3,8.7-35.3,17.1-53.4,24.8
		c-23.6,10.1-44.8,18-62.4,23c-6.8,1.9-12.2,3.2-16.2,3.6c-2.3,0.2-3.3-0.6-2-1.4c2.5-1.5,7.2-2.9,13.4-4.5c7.7-1.9,17.1-3.6,28-4.9
		c25.2-3,55.2-3.4,86.7,1c2,0.3,3.9,0.6,5.8,0.9 M606.9,367.4c-6.2-18.2-8.9-36-7.1-52.2c1.2-11,5-21,11.2-28.6"/>
	<path fill="none" stroke="#6A69B0" stroke-width="0.1" d="M-0.7,83C1.2,84.6,3,86.2,5,87.7c33,25.8,83.2,39.3,132.8,50.9
		c46.4,10.9,90.2,24.3,98.7,47.4c8.8,23.9-17.6,54-55.6,74.3c-19.2,10.2-40.3,17.7-61,21.1c-18.3,3-35.8,2.4-46.7-2.9
		c-9.4-4.6-12.4-14.1-7.4-22.4c6-9.8,20.5-18.7,39-24.7c41.8-13.4,97-9.6,140,6.7c19.8,7.5,35.6,16.7,47,25.6
		c8.6,6.8,15.6,13.7,13.1,13.5c-3.8-0.2-8.2-7.9-14.9-18.3c-8.9-14-17.8-31.5-25.7-51.4c-8.3-20.9-14.4-42-17.6-61.6
		c-1.4-8.8-2.2-16.9-1.9-24c0.2-6.1,1.1-11.3,3.4-15c3.1-5,13.4-4.2,22,1.7c12.4,8.5,25.2,21.2,41.2,35.4
		c36.4,32.3,83.1,65,143.3,78c30.4,6.6,63,8.2,94.9,6.3c21.7-1.3,42.2-4,61.4-7.2 M611,260.2c-17,8.7-34.6,17-52.4,24.8
		c-23.2,10.1-44.1,18.1-61.5,23.2c-6.7,2-12.1,3.3-16.1,3.8c-2.3,0.3-3.3-0.4-2.1-1.1c2.5-1.4,6.9-2.8,13-4.2
		c7.6-1.8,16.7-3.5,27.4-4.7c24.8-2.9,54.3-3.2,85.3,1.1c2.1,0.3,4.3,0.6,6.4,1 M607.9,367.4c-6.1-18-8.6-35.6-6.9-51.6
		c1.1-10.3,4.5-19.8,10-27.2"/>
	<path fill="none" stroke="#6A69B0" stroke-width="0.1" d="M-0.7,77c3.2,3,6.6,5.9,10.2,8.7c32.1,25.1,80.1,38.8,127.5,50.9
		c44.4,11.3,86.2,25.3,94.6,48.2c8.7,23.7-15.9,53.3-52,73.6c-18.2,10.2-38.2,17.7-58,21.4c-17.4,3.2-34,3.1-44.6-1.7
		c-8.9-4-12-12.9-7.3-20.6c5.7-9.2,19.4-17.6,37-23.3c40-12.8,92.8-9.4,134.5,5.8c19.2,7,34.6,15.6,45.9,23.9
		c8.6,6.3,15.5,13.2,13.6,12.3c-3-1.5-7-8.1-13.1-18.3c-8.1-13.7-16.3-30.8-23.4-50.3c-7.5-20.5-13.1-41-15.8-60.3
		c-2.3-16.6-2.8-30.3,2.5-38.6c3.3-5.2,13.6-4.7,22.3,0.8c12.4,8,25,20.2,40.8,33.9c36,31.3,81.8,63.2,140.9,76.2
		c29.9,6.6,61.9,8.4,93.2,6.7c22.1-1.1,43.2-3.8,62.7-7 M611,260c-16.7,8.7-34,17.1-51.5,24.9c-22.8,10.2-43.5,18.2-60.7,23.4
		c-6.6,2-12,3.4-16,4c-2.3,0.3-3.3-0.3-2.2-0.9c2.4-1.3,6.8-2.6,12.7-4c7.4-1.7,16.4-3.3,26.8-4.5c24.3-2.8,53.3-3.1,83.9,1.2
		c2.3,0.3,4.6,0.7,6.9,1 M609,367.4c-5.9-17.7-8.4-35.1-6.8-51c1-9.6,4-18.4,8.8-25.6"/>
	<path fill="none" stroke="#6A69B0" stroke-width="0.1" d="M-0.7,70.7c4.5,4.5,9.4,8.9,14.7,13c31.2,24.4,77.1,38.3,122.3,50.9
		c42.4,11.8,82.3,26.3,90.6,49c8.6,23.5-14.3,52.7-48.5,73c-17.2,10.1-36.2,17.8-55,21.7c-16.5,3.4-32.4,3.7-42.5-0.5
		c-8.5-3.5-11.6-11.8-7.2-18.9c5.4-8.6,18.4-16.5,35.1-21.9c38.2-12.2,88.7-9.3,129.1,4.9c18.6,6.5,33.6,14.6,44.8,22.3
		c8.5,5.8,14.7,12.5,14.2,11.1c-0.2-0.8-1.6-2.3-3.3-4.9c-2.3-3.5-5.1-8-8-13.5c-7.3-13.5-14.8-30.2-21.3-49.2
		c-6.8-20-11.9-40.1-14-59c-1.9-16.3-2-29.9,3.5-38.3c3.5-5.3,13.9-5.2,22.5,0c12.4,7.4,24.9,19.2,40.5,32.5
		c35.6,30.3,80.6,61.5,138.6,74.5c29.3,6.5,60.7,8.5,91.6,7.1c22.6-1,44.1-3.6,64-6.7 M611,259.9c-16.3,8.7-33.4,17.1-50.7,24.9
		c-22.5,10.2-42.8,18.3-59.8,23.6c-6.6,2.1-11.9,3.5-15.8,4.2c-2.3,0.4-3.3-0.1-2.3-0.6c2.3-1.2,6.5-2.4,12.3-3.7
		c7.2-1.7,16-3.2,26.3-4.3c23.9-2.7,52.4-2.9,82.6,1.3c2.5,0.3,4.9,0.7,7.4,1.1 M610.1,367.4c-5.8-17.5-8.2-34.7-6.6-50.4
		c0.9-8.8,3.4-17,7.5-23.9"/>
	<path fill="none" stroke="#6A69B0" stroke-width="0.1" d="M-0.7,64.2c5.7,6.1,12,12,19.1,17.5c30.4,23.7,74.1,37.9,117.1,50.9
		c40.5,12.3,78.4,27.2,86.6,49.9c8.4,23.3-12.6,52-45,72.3c-16.2,10.1-34.1,17.8-52,22c-15.6,3.7-30.6,4.4-40.4,0.7
		c-8.1-3-11.2-10.6-7.1-17.1c5-8,17.3-15.4,33.2-20.5c36.4-11.7,84.6-9.1,123.7,4c18,6,32.6,13.5,43.7,20.6
		c8.4,5.4,14.3,11.3,14.7,9.9c0.3-0.8-1.1-2.5-2.5-5c-2-3.5-4.4-7.9-7.1-13.3c-6.5-13.2-13.3-29.5-19.1-48.1
		c-6.1-19.6-10.5-39.2-12.2-57.7c-1.4-16.1-1.2-29.5,4.5-37.9c3.7-5.5,14.1-5.7,22.8-0.8c12.4,6.9,24.8,18.3,40.1,31
		c35.3,29.3,79.3,59.8,136.3,72.7c28.8,6.5,59.6,8.6,90,7.5c23.1-0.9,45-3.4,65.3-6.5 M611,259.8c-16,8.7-32.8,17.1-49.8,24.9
		c-22.1,10.2-42.2,18.3-58.9,23.8c-6.5,2.1-11.8,3.6-15.7,4.4c-2.3,0.5-3.4,0.1-2.4-0.4c2.3-1.1,6.4-2.2,12-3.5
		c7.1-1.6,15.7-3,25.7-4.1c23.5-2.5,51.5-2.8,81.2,1.3c2.6,0.4,5.3,0.8,7.9,1.2 M611,367.2c-5.6-17.2-7.9-34-6.3-49.5
		c0.8-8,2.9-15.4,6.3-21.9"/>
	<path fill="none" stroke="#6A69B0" stroke-width="0.1" d="M-0.7,57.6c6.9,7.7,14.6,15.2,23.5,22.2c29.5,23,71.1,37.4,112,50.9
		c38.5,12.8,74.5,28.2,82.6,50.7c8.3,23.1-11.1,51.4-41.6,71.6c-15.1,10.1-32.1,17.8-49.1,22.2c-14.8,3.9-28.9,5-38.4,1.9
		c-7.6-2.5-10.7-9.4-7-15.4c4.7-7.5,16.3-14.3,31.3-19.1c34.7-11.1,80.6-8.9,118.4,3.2c17.4,5.6,31.7,12.5,42.7,19
		c8.3,4.9,14.3,10.1,15.2,8.7c1.6-2.4-3.6-8.7-7.9-18.4c-5.7-13-11.9-28.9-17-47c-5.4-19.1-9.2-38.4-10.4-56.5
		c-1-15.8-0.4-29.2,5.5-37.5c3.9-5.6,14.4-6.2,23.1-1.6c12.3,6.4,24.6,17.3,39.8,29.6c34.9,28.3,78.1,58.1,134,71
		c28.2,6.5,58.5,8.8,88.3,7.9c23.5-0.7,45.9-3.2,66.5-6.1 M611,259.7c-15.7,8.7-32.2,17.1-48.9,25c-21.7,10.3-41.5,18.5-58.1,24.1
		c-6.4,2.2-11.7,3.7-15.6,4.6c-2.4,0.5-3.4,0.3-2.5-0.1c2.2-1,6.2-2,11.7-3.2c6.9-1.5,15.4-2.9,25.2-3.9c23.1-2.4,50.6-2.6,79.8,1.4
		c2.8,0.4,5.6,0.8,8.4,1.3 M611,363.8c-4.7-15.8-6.6-31.2-5.1-45.5c0.7-7,2.4-13.7,5.1-19.7"/>
	<path fill="none" stroke="#6A69B0" stroke-width="0.1" d="M-0.7,51.1c8,9.3,17.1,18.4,27.9,26.8c28.7,22.3,68.2,36.9,107,50.9
		c36.6,13.2,70.7,29.1,78.7,51.5c8.2,23-9.6,50.7-38.3,71c-14.2,10-30.1,17.8-46.1,22.5c-13.9,4.1-27.3,5.6-36.4,3
		c-7.2-2-10.3-8.3-6.8-13.7c4.4-6.9,15.3-13.3,29.4-17.8c32.9-10.5,76.6-8.7,113.1,2.3c16.8,5.1,30.7,11.5,41.6,17.4
		c8.3,4.5,14.5,9,15.7,7.5c2-2.4-2.5-8.9-6.2-18.4c-5-12.7-10.4-28.3-14.9-45.9c-4.8-18.7-8-37.5-8.7-55.2
		c-0.6-15.6,0.4-28.8,6.5-37.2c4.1-5.7,14.6-6.7,23.3-2.4c12.3,5.9,24.5,16.4,39.5,28.2c34.6,27.3,76.9,56.4,131.7,69.3
		c27.7,6.5,57.4,8.9,86.7,8.2c24-0.5,46.8-3,67.8-5.8 M611,259.6c-15.4,8.7-31.6,17.1-48.1,25c-21.4,10.3-40.9,18.5-57.2,24.3
		c-6.4,2.3-11.6,3.9-15.5,4.8c-2.4,0.6-3.4,0.4-2.6,0.1c2.2-0.8,6-1.9,11.3-3c6.8-1.4,15-2.7,24.7-3.7c22.6-2.3,49.7-2.5,78.5,1.5
		c3,0.4,5.9,0.9,8.9,1.4 M611,360.2c-3.8-14.3-5.2-28.2-4-41.2c0.6-6,1.9-11.7,4-17"/>
	<path fill="none" stroke="#6A69B0" stroke-width="0.1" d="M-0.7,44.8c9.2,10.8,19.6,21.5,32.2,31.3c27.9,21.6,65.4,36.5,102,50.9
		c34.7,13.7,66.9,30,74.8,52.3c8,22.8-8.1,50.1-35,70.3c-13.2,9.9-28.2,17.8-43.2,22.8c-13.1,4.3-25.6,6.2-34.3,4.2
		c-6.7-1.5-9.8-7.2-6.7-12c4.1-6.3,14.3-12.2,27.6-16.4c31.2-9.9,72.7-8.5,107.9,1.5c16.3,4.6,29.7,10.5,40.5,15.8
		c8.2,4.1,14.7,7.9,16.2,6.4c2.4-2.4-1.3-9.1-4.5-18.5c-4.2-12.5-9-27.7-12.8-44.9c-4-18.2-6.8-36.6-7-54
		c-0.1-15.4,1.3-28.4,7.5-36.8c4.3-5.9,14.8-7.1,23.6-3.2c12.2,5.5,24.4,15.5,39.2,26.8c34.3,26.4,75.8,54.7,129.5,67.6
		c27.2,6.5,56.3,9,85.2,8.6c24.4-0.4,47.6-2.7,69-5.4 M611,259.4c-15.1,8.7-31,17.2-47.3,25.1c-21,10.3-40.3,18.6-56.4,24.5
		c-11.3,4.1-18.4,5.5-18,5.4c2.1-0.8,5.8-1.7,11-2.7c6.6-1.3,14.7-2.6,24.1-3.5c22.2-2.2,48.8-2.3,77.2,1.6c3.1,0.4,6.2,0.9,9.3,1.5
		 M611,355.9c-2.9-12.6-3.9-24.8-2.8-36.4c0.5-4.8,1.4-9.5,2.8-13.9"/>
	<path fill="none" stroke="#6A69B0" stroke-width="0.1" d="M-0.7,38.9c10.5,12,22.1,24.2,36.5,35.4c27,21,62.6,36,97.1,50.9
		c32.9,14.2,63.2,30.9,70.9,53.1c7.9,22.6-6.7,49.4-31.7,69.6c-12.3,9.9-26.2,17.8-40.4,23c-12.2,4.5-23.9,6.8-32.3,5.3
		c-6.3-1.1-9.4-6.1-6.5-10.4c3.7-5.8,13.3-11.1,25.8-15.1c29.6-9.3,68.8-8.2,102.7,0.8c15.7,4.2,28.7,9.5,39.5,14.3
		c8.2,3.6,14.8,6.9,16.7,5.2c2.7-2.5-0.2-9.2-2.9-18.5c-3.5-12.3-7.6-27.1-10.8-43.9c-3.4-17.8-5.5-35.8-5.3-52.8
		c0.3-15.1,2.1-28,8.5-36.4c4.6-6,15-7.5,23.9-3.9c12.1,5,24.3,14.6,38.9,25.5c33.9,25.4,74.6,53,127.3,65.8
		c26.7,6.5,55.3,9.1,83.6,8.9c24.9-0.2,48.5-2.4,70.1-5 M611,259.2c-14.8,8.7-30.5,17.2-46.5,25.2c-20.7,10.3-39.6,18.7-55.5,24.7
		c-11.2,4.2-18.3,5.9-18,5.8c2-0.6,5.6-1.5,10.7-2.5c6.5-1.2,14.4-2.4,23.6-3.3c21.8-2.1,47.9-2.2,75.9,1.7c3.3,0.5,6.5,1,9.8,1.5
		 M611,350.9c-2-10.6-2.6-21-1.7-30.8c0.3-3.4,0.9-6.7,1.7-9.9"/>
	<path fill="none" stroke="#6A69B0" stroke-width="0.1" d="M-0.7,33.7C11.3,46.5,24,60,40.1,72.5c26.2,20.3,59.8,35.6,92.3,50.9
		c31,14.6,59.4,31.8,67,53.8c7.7,22.5-5.3,48.8-28.5,69c-11.3,9.8-24.3,17.8-37.5,23.3c-11.4,4.7-22.3,7.3-30.4,6.4
		c-5.8-0.6-8.9-5-6.4-8.8c3.5-5.2,12.4-10.1,24.1-13.8c27.9-8.7,65-8,97.6,0c15.1,3.7,27.8,8.5,38.4,12.7c8.1,3.2,15,5.9,17.2,4
		c3-2.6,0.8-9.4-1.3-18.6c-2.7-12-6.2-26.5-8.7-42.9c-2.7-17.4-4.3-34.9-3.6-51.6c0.7-14.9,2.9-27.6,9.5-36
		c4.8-6.1,15.2-7.9,24.2-4.6c12.1,4.5,24.2,13.7,38.6,24.1c33.6,24.5,73.5,51.4,125.2,64.1c26.2,6.5,54.2,9.3,82,9.3
		c25.3,0,49.3-2.1,71.3-4.5 M611,259.1c-14.5,8.7-29.9,17.2-45.7,25.2c-20.3,10.4-39,18.7-54.7,24.9c-11.1,4.4-18.4,6.4-17.9,6.3
		c2-0.5,5.4-1.4,10.4-2.3c6.3-1.2,14-2.3,23.1-3.1c21.4-2,47.1-2,74.6,1.8c3.4,0.5,6.8,1,10.2,1.6 M611,343.9
		c-1-7.9-1.2-15.7-0.5-23.1c0.1-1.4,0.3-2.8,0.5-4.2"/>
	<path fill="none" stroke="#6A69B0" stroke-width="0.1" d="M-0.7,29.3c13.6,13.3,27.4,27.9,44.9,41.4c25.5,19.7,57.1,35.1,87.6,50.9
		c29.2,15.1,55.8,32.7,63.2,54.6c7.6,22.4-3.9,48.2-25.4,68.3c-10.4,9.8-22.4,17.8-34.7,23.5c-10.6,4.9-20.7,7.8-28.4,7.5
		c-5.3-0.2-8.5-3.9-6.2-7.1c3.2-4.6,11.5-9.1,22.3-12.5c26.3-8.2,61.2-7.8,92.6-0.7c14.5,3.3,26.9,7.6,37.3,11.2
		c8.1,2.8,15.1,4.9,17.7,2.9c3.4-2.7,1.8-9.6,0.3-18.6c-2-11.8-4.8-25.9-6.8-41.9c-2.1-17-3.1-34.1-1.9-50.4
		c1.1-14.6,3.7-27.2,10.4-35.6c5-6.2,15.4-8.4,24.5-5.3c12,4.1,24.1,12.8,38.3,22.8c33.3,23.5,72.4,49.7,123.1,62.4
		c25.7,6.4,53.2,9.4,80.5,9.6c25.7,0.2,50.1-1.8,72.4-4 M611,258.9c-14.3,8.8-29.4,17.3-44.9,25.3c-20,10.4-38.4,18.8-53.9,25.1
		c-11.1,4.4-18.5,6.8-17.9,6.7c1.9-0.4,5.3-1.2,10.1-2c6.2-1.1,13.7-2.1,22.6-2.9c21-1.8,46.2-1.9,73.3,1.8
		c3.6,0.5,7.1,1.1,10.7,1.7"/>
	<path fill="none" stroke="#6A69B0" stroke-width="0.1" d="M-0.7,25.9c15.4,13.2,30.4,28.7,49,43.1c24.7,19.1,54.5,34.7,82.9,50.9
		c27.4,15.5,52.1,33.5,59.5,55.4c7.4,22.2-2.7,47.5-22.3,67.7c-9.5,9.7-20.5,17.8-32,23.7c-9.8,5.1-19.1,8.3-26.5,8.5
		c-4.9,0.2-8-2.8-6.1-5.6c2.9-4.1,10.5-8.1,20.6-11.2c24.7-7.6,57.6-7.5,87.6-1.4c26.6,5.4,47.7,16.6,54.4,11.5
		c3.6-2.9,2.9-9.8,1.9-18.7c-1.2-11.6-3.4-25.4-4.8-40.9c-1.4-16.5-2-33.3-0.3-49.2c1.5-14.4,4.5-26.8,11.4-35.2
		c5.2-6.3,15.6-8.8,24.8-6c12,3.6,24,11.9,38,21.5c32.9,22.6,71.3,48.1,121,60.7c25.2,6.4,52.2,9.5,79,9.9
		c26.1,0.4,50.9-1.5,73.5-3.4 M611,258.7c-14,8.8-28.9,17.3-44.1,25.4c-19.7,10.4-37.8,18.9-53,25.3c-11,4.5-18.6,7.2-17.8,7.1
		c1.9-0.3,5.1-1,9.8-1.8c6-1,13.4-2,22.1-2.7c20.6-1.7,45.4-1.8,72,1.9c3.7,0.5,7.4,1.1,11.1,1.8"/>
	<path fill="none" stroke="#6A69B0" stroke-width="0.1" d="M-0.7,23.4c17.3,12.8,33.5,28.7,53.1,43.8c23.9,18.4,51.8,34.3,78.3,50.8
		c25.6,16,48.5,34.4,55.7,56.1c7.2,22.1-1.4,46.9-19.3,67c-8.6,9.6-18.7,17.8-29.2,24c-9,5.3-17.6,8.8-24.5,9.6
		c-4.5,0.5-7.6-1.7-5.9-4c2.6-3.6,9.6-7.1,18.9-9.9c23.1-7,53.9-7.3,82.6-2.1c25.6,4.6,46.7,14.3,53.8,8.8c4-3,3.9-10,3.4-18.8
		c-0.6-11.3-2.1-24.8-2.9-40c-0.8-16.1-0.8-32.5,1.4-48.1c2-14.1,5.2-26.4,12.4-34.8c5.5-6.4,15.8-9.1,25.1-6.7
		c11.9,3.2,23.9,11.1,37.8,20.2c32.6,21.6,70.2,46.5,118.9,59.1c24.7,6.4,51.2,9.5,77.5,10.2c25.8,0.6,50.4-1,72.8-2.7
		c0.6,0,1.2-0.1,1.8-0.1 M611,258.5c-13.7,8.8-28.4,17.4-43.4,25.5c-19.3,10.4-37.2,19-52.2,25.4c-10.9,4.6-18.8,7.6-17.8,7.5
		c1.8-0.2,4.9-0.9,9.5-1.6c5.9-0.9,13.1-1.8,21.6-2.5c20.2-1.6,44.5-1.6,70.8,2c3.8,0.5,7.7,1.1,11.5,1.8"/>
	<path fill="none" stroke="#6A69B0" stroke-width="0.1" d="M-0.7,21.9c19.4,11.9,36.8,28.1,57.2,43.7c23.2,17.8,49.3,33.9,73.8,50.8
		c23.9,16.5,45,35.2,52,56.8c7.1,22-0.2,46.3-16.3,66.4c-7.7,9.6-16.9,17.8-26.5,24.2c-8.3,5.5-16.1,9.2-22.6,10.6
		c-4.1,0.9-7.1-0.7-5.7-2.4c2.4-3.1,8.8-6.1,17.3-8.6c21.5-6.4,50.3-7,77.8-2.8c24.6,3.8,45.6,11.9,53.2,6.3
		c4.3-3.2,4.8-10.1,4.9-18.9c0.1-11.1-0.8-24.3-1-39.1c-0.2-15.7,0.4-31.7,3-46.9c2.4-13.9,6-26,13.3-34.3c5.7-6.5,16-9.5,25.4-7.3
		c11.8,2.8,23.9,10.2,37.5,19c32.3,20.7,69.2,44.9,116.9,57.4c24.2,6.4,50.2,9.6,76.1,10.5c25.3,0.8,49.5-0.6,71.6-2
		c1.3-0.1,2.7-0.2,4-0.3 M611,258.3c-13.4,8.8-27.9,17.5-42.7,25.6c-18.9,10.5-36.6,19.1-51.4,25.6c-10.7,4.8-19,8-17.7,7.9
		c1.7-0.1,4.8-0.7,9.2-1.3c5.8-0.8,12.8-1.7,21.1-2.3c19.8-1.5,43.7-1.5,69.6,2.1c4,0.6,7.9,1.2,11.9,1.9"/>
	<path fill="none" stroke="#6A69B0" stroke-width="0.1" d="M-0.7,21.1c21.5,10.7,40.2,26.8,61.1,42.8c22.5,17.2,46.7,33.5,69.3,50.8
		c22.1,17,41.5,36,48.3,57.6c6.9,21.8,1,45.7-13.4,65.8c-6.8,9.5-15.1,17.8-23.8,24.4c-7.5,5.7-14.7,9.7-20.7,11.7
		c-3.8,1.2-6.7,0.3-5.6-0.9c2.2-2.5,7.9-5.1,15.7-7.4c20-5.9,46.8-6.7,73-3.4c23.6,3,44.4,9.7,52.5,3.7c4.6-3.4,5.8-10.3,6.4-19
		c0.8-10.9,0.5-23.8,0.9-38.2c0.4-15.3,1.5-30.9,4.5-45.8c2.8-13.6,6.8-25.6,14.3-33.9c5.9-6.6,16.2-9.8,25.7-7.9
		c11.7,2.3,23.8,9.4,37.3,17.7c32,19.7,68.1,43.3,114.9,55.7c47.6,12.6,99.6,11.8,145.1,9.5c2.1-0.1,4.1-0.2,6.1-0.3 M611,258.1
		c-13.2,8.9-27.4,17.5-42,25.8c-18.6,10.5-36,19.1-50.6,25.8c-10.7,4.8-19.1,8.3-17.6,8.3c1.6,0,4.6-0.6,8.9-1.1
		c5.6-0.8,12.5-1.6,20.7-2.1c19.5-1.4,42.9-1.3,68.4,2.2c4.1,0.6,8.2,1.2,12.3,2"/>
	<path fill="none" stroke="#6A69B0" stroke-width="0.1" d="M0.4,21.5c23.1,9.3,43,24.8,64,40.7c21.8,16.6,44.2,33.2,64.9,50.8
		c20.4,17.4,38,36.8,44.7,58.3c6.7,21.7,2.1,45.1-10.5,65.2c-6,9.5-13.3,17.8-21.2,24.6c-6.8,5.9-13.3,10.2-18.9,12.7
		c-3.6,1.6-6.2,1.3-5.4,0.6c1.9-2,7-4.1,14.1-6.1c18.5-5.3,43.4-6.5,68.2-4.1c22.7,2.2,43.3,7.5,51.9,1.2c4.9-3.6,6.8-10.5,7.9-19.1
		c1.4-10.7,1.7-23.2,2.7-37.3c1.1-14.9,2.6-30.1,6.1-44.7c3.2-13.4,7.6-25.2,15.2-33.5c6.1-6.6,16.4-10.1,26-8.5
		c11.6,1.9,23.7,8.6,37.1,16.5c31.7,18.8,67.1,41.7,112.9,54.1c46.7,12.6,97.7,12.3,142.6,10.5c2.8-0.1,5.6-0.2,8.3-0.3 M611,257.9
		c-12.9,8.9-26.9,17.6-41.3,25.9c-18.3,10.5-35.3,19.2-49.8,26c-10.6,4.9-19.2,8.5-17.6,8.7c4.4,0.5,14.1-1.9,28.9-2.9
		c19.1-1.3,42.1-1.2,67.2,2.3c4.2,0.6,8.5,1.3,12.7,2.1"/>
	<path fill="none" stroke="#6A69B0" stroke-width="0.1" d="M3.9,23.2c23.6,8,44.1,22.1,64.4,37.5c21.1,16,41.7,32.8,60.5,50.8
		c18.7,17.9,34.6,37.5,41.1,59c6.5,21.6,3.2,44.5-7.7,64.5c-5.2,9.4-11.6,17.8-18.5,24.8c-6,6.1-12,10.7-17,13.7
		c-3.3,2-5.6,2.4-5.2,2.1c1.8-1.4,6.2-3.2,12.5-4.9c17-4.7,40-6.2,63.5-4.7c21.8,1.4,42.1,5.3,51.3-1.3c5.2-3.8,7.6-10.7,9.3-19.2
		c2-10.4,3-22.7,4.5-36.4c1.6-14.6,3.7-29.4,7.6-43.6c3.6-13.2,8.3-24.8,16.2-33.1c6.4-6.7,16.6-10.4,26.3-9.1
		c11.5,1.6,23.6,7.7,36.8,15.3c31.4,17.9,66.1,40.1,111,52.4c45.8,12.5,95.8,12.7,140,11.5c3.6-0.1,7-0.2,10.3-0.3 M611,257.6
		c-12.7,9-26.4,17.7-40.7,26.1c-18,10.5-34.7,19.3-49,26.2c-10.4,5.1-19.3,8.7-17.5,9.1c4.1,0.8,13.7-1.6,28.1-2.5
		c18.7-1.2,41.4-1,66,2.4c4.3,0.6,8.7,1.3,13,2.1"/>
	<path fill="none" stroke="#6A69B0" stroke-width="0.1" d="M7.4,24.8c49.4,13.6,87.3,48.8,120.9,85c33.9,36.6,51.2,83,32.7,123.6
		c-4.3,9.4-9.8,17.8-15.9,25c-5.3,6.3-10.6,11.2-15.2,14.7c-3.1,2.4-5.2,3.6-5.1,3.5c1.7-0.8,5.4-2.2,11-3.7
		c15.5-4.2,36.6-5.9,58.9-5.3c20.9,0.6,40.9,3.2,50.7-3.8c5.5-4,8.6-10.8,10.7-19.3c2.7-10.2,4.2-22.3,6.3-35.6
		c2.3-14.2,4.9-28.6,9.2-42.5c4-12.9,9.1-24.4,17.1-32.7c6.6-6.8,16.8-10.7,26.6-9.7c11.5,1.2,23.6,6.9,36.6,14.1
		c31.1,17,65.2,38.6,109.1,50.8c44.9,12.4,94,13.1,137.5,12.4c4.3-0.1,8.4-0.1,12.4-0.2 M611,257.4c-12.4,9-26,17.8-40,26.2
		c-17.6,10.6-34.2,19.4-48.2,26.3c-10.4,5.1-19.4,8.9-17.4,9.5c3.8,1.1,13.3-1.3,27.4-2.1c18.3-1.1,40.6-0.9,64.8,2.5
		c4.5,0.6,8.9,1.4,13.4,2.2"/>
	<path fill="none" stroke="#6A69B0" stroke-width="0.1" d="M10.9,26.4c49.6,10.9,87.2,45.2,117,81.9c30.6,37.6,47,83.1,32,123.7
		c-3.5,9.4-8.1,17.9-13.4,25.2c-4.6,6.5-9.4,11.7-13.4,15.6c-2.9,2.8-5.7,4.8-4.9,5c1.4,0.3,4.5-1.3,9.5-2.5
		c14.1-3.6,33.4-5.7,54.3-5.8c20.1-0.1,39.7,1.2,50-6.2c5.8-4.2,9.4-11,12.1-19.4c3.3-10,5.4-21.8,8.1-34.7
		c5.7-27.9,11.1-55.8,28.7-73.6c6.8-6.8,17-10.9,27-10.2c11.4,0.8,23.5,6.2,36.4,12.9c30.8,16.1,64.2,37,107.3,49.2
		c44,12.4,92.2,13.5,135,13.4c5,0,9.8,0,14.4,0 M611,257.1c-12.2,9.1-25.5,17.9-39.4,26.4c-17.3,10.6-33.6,19.4-47.4,26.5
		c-10.3,5.2-19.3,9-17.4,9.9c3.4,1.4,12.9-1,26.7-1.7c18-0.9,39.8-0.7,63.7,2.6c4.6,0.6,9.1,1.4,13.7,2.3"/>
	<path fill="none" stroke="#6A69B0" stroke-width="0.1" d="M14.3,28c49.7,8.4,87.1,41.7,113.2,78.7c27.2,38.6,42.7,83.2,31.2,123.7
		c-2.6,9.3-6.5,17.9-10.8,25.4c-3.9,6.7-8,12.3-11.6,16.6c-2.7,3.2-5.3,5.4-4.7,6.4c0.4,0.7,3.7-0.4,8-1.4c12.7-3,30.2-5.5,49.8-6.4
		c19.2-0.9,38.5-0.9,49.4-8.6c6.1-4.3,10.3-11.2,13.5-19.5c3.9-9.8,6.6-21.3,9.8-33.9c6.9-27.1,13.1-54.5,31.1-72.1
		c7-6.9,17.2-11.2,27.3-10.8c11.3,0.5,23.4,5.4,36.2,11.7c30.5,15.2,63.3,35.5,105.5,47.6c43.1,12.3,90.4,13.8,132.6,14.3
		c5.7,0.1,11.2,0.1,16.4,0.2 M611,256.8c-11.9,9.1-25.1,18-38.8,26.6c-16.9,10.6-33,19.5-46.6,26.7c-10.2,5.3-19.3,9.2-17.3,10.2
		c3.1,1.6,12.5-0.7,26.1-1.3c17.6-0.8,39.1-0.6,62.6,2.7c4.7,0.7,9.4,1.5,14,2.4"/>
	<path fill="none" stroke="#6A69B0" stroke-width="0.1" d="M17.6,29.6c49.8,6,86.9,38.2,109.5,75.6c23.9,39.6,38.5,83.3,30.5,123.8
		c-1.8,9.3-4.8,17.9-8.3,25.6c-3.2,6.9-6.7,12.8-9.9,17.6c-2.4,3.7-4.7,6.2-4.6,7.8c0.1,0.8,2.9,0.6,6.5-0.2c11.3-2.5,27-5.2,45.4-7
		c18.4-1.7,37.3-2.8,48.7-11c6.4-4.5,11-11.4,14.9-19.6c4.4-9.6,7.8-20.8,11.5-33.1c8.1-26.4,15.2-53.2,33.4-70.7
		c7.2-6.9,17.4-11.4,27.6-11.3c11.2,0.1,23.4,4.6,36,10.6c30.2,14.2,62.4,34,103.7,46c42.3,12.2,88.6,14.2,130.2,15.1
		c6.5,0.1,12.6,0.3,18.3,0.5 M611,256.5c-11.7,9.2-24.6,18.2-38.2,26.8c-16.6,10.6-32.4,19.6-45.9,26.8
		c-10.1,5.4-19.1,9.3-17.2,10.6c2.7,1.8,12.2-0.4,25.4-0.9c17.3-0.7,38.4-0.4,61.5,2.8c4.8,0.7,9.6,1.5,14.3,2.4"/>
	<path fill="none" stroke="#6A69B0" stroke-width="0.1" d="M20.9,31.2c25.7,1.9,49.4,9.4,66.1,21.9c17.8,13.2,29.8,31.3,39.6,50.6
		c20.6,40.5,34.3,83.5,29.8,123.8c-2,18-8.1,33.1-14,44.3c-3.8,7.1-3.8,10.9,0.6,10.1c9.9-1.9,24-5.1,41-7.5
		c17.7-2.5,36.1-4.8,48.1-13.3c6.7-4.7,11.9-11.5,16.2-19.7c5-9.4,8.9-20.4,13.2-32.4c9.2-25.7,17.3-51.9,35.8-69.2
		c7.5-7,17.6-11.6,27.9-11.8c11.1-0.2,23.3,3.9,35.9,9.5c29.9,13.4,61.5,32.5,101.9,44.4c41.5,12.1,86.9,14.5,127.8,16
		c7.2,0.3,13.9,0.5,20.2,0.9 M611,256.2c-11.5,9.3-24.2,18.3-37.6,27.1c-16.3,10.7-31.8,19.6-45.1,27c-10,5.5-19,9.4-17.1,11
		c2.3,1.9,11.8-0.1,24.7-0.6c17-0.6,37.6-0.3,60.4,2.9c4.9,0.7,9.8,1.5,14.6,2.5"/>
	<path fill="none" stroke="#6A69B0" stroke-width="0.1" d="M24.1,32.8c26.1,0.9,50.4,7,66.5,18.9c17.2,12.7,27.5,31,35.6,50.6
		c17.2,41.3,30.2,83.8,29,123.9c-0.5,18-4.8,33.5-9.9,45.4c-3.4,8.1-4.1,13.1-0.6,12.6c8.5-1.2,20.9-4.9,36.7-8
		c16.9-3.4,34.9-6.7,47.5-15.6c6.9-4.9,12.6-11.7,17.5-19.9c5.5-9.2,10-19.9,14.8-31.6c10.3-25,19.3-50.6,38.1-67.8
		c7.7-7,17.8-11.8,28.3-12.2c11-0.5,23.3,3.2,35.7,8.4c29.6,12.5,60.6,31.1,100.2,42.8c40.7,12.1,85.2,14.9,125.5,16.8
		c7.9,0.4,15.3,0.7,22.1,1.4 M611,255.9c-11.2,9.4-23.8,18.5-37,27.3c-16,10.7-31.3,19.7-44.3,27.1c-9.8,5.6-18.8,9.5-17,11.3
		c2,2,11.5,0.2,24.1-0.2c16.6-0.5,36.9-0.2,59.3,3.1c5,0.7,9.9,1.6,14.9,2.6"/>
	<path fill="none" stroke="#6A69B0" stroke-width="0.1" d="M27.3,34.3c26.5-0.2,51.3,4.5,66.9,15.9c16.6,12.1,25.1,30.7,31.7,50.6
		c13.8,42.1,26.1,84.2,28.3,123.9c1,18-1.6,33.9-5.8,46.5c-3,9-4.8,15.2-1.9,15c7.1-0.6,18-4.8,32.4-8.6
		c16.1-4.2,33.7-8.6,46.9-17.9c15.1-10.8,25-29,35.2-50.8c11.4-24.3,21.3-49.3,40.3-66.3c7.9-7.1,18-12,28.6-12.7
		c11-0.8,23.2,2.4,35.5,7.3c29.3,11.6,59.8,29.6,98.5,41.2c39.9,12,83.5,15.2,123.2,17.6c8.6,0.5,16.6,1,23.9,1.9 M611,255.5
		c-11,9.4-23.4,18.7-36.5,27.6c-15.7,10.7-30.7,19.8-43.5,27.3c-9.7,5.7-18.6,9.7-16.9,11.6c1.7,2.1,11.2,0.4,23.5,0.1
		c16.3-0.4,36.2,0,58.3,3.2c5.1,0.7,10.1,1.6,15.2,2.6"/>
	<path fill="none" stroke="#6A69B0" stroke-width="0.1" d="M30.5,35.9c27-1.1,52.3,2.1,67.2,12.9c16,11.6,22.9,30.5,27.8,50.6
		c10.6,42.8,22.1,84.6,27.6,124c2.5,18,1.6,34.3-1.8,47.6c-2.5,9.9-6.1,17.3-3.1,17.4c5.7,0.2,15-4.7,28.3-9.1
		c15.3-5.1,32.6-10.4,46.2-20.2c15.6-11.1,26.8-28.9,38-50.2c12.4-23.6,23.2-48,42.6-64.9c8.1-7.1,18.3-12.1,28.9-13.2
		c10.9-1,23.1,1.7,35.4,6.3c29,10.7,58.9,28.2,96.8,39.7c39.1,11.9,81.9,15.5,120.9,18.4c9.3,0.7,18,1.4,25.7,2.5 M611,255.1
		c-10.8,9.5-23.1,18.9-35.9,27.9c-15.4,10.7-30.2,19.8-42.8,27.4c-9.6,5.8-18.3,9.8-16.8,12c1.5,2.1,10.8,0.7,22.9,0.5
		c16-0.3,35.6,0.1,57.2,3.3c5.1,0.7,10.3,1.6,15.4,2.7"/>
	<path fill="none" stroke="#6A69B0" stroke-width="0.1" d="M33.5,37.4c27.5-2.1,53.2-0.3,67.6,10c15.4,11.1,20.6,30.2,24,50.6
		c3.6,21.6,5.8,43.6,10.8,64.8c4.8,20.5,11.8,40.1,16.1,59.2c4,18,4.7,34.7,2.2,48.7c-2,10.7-7.6,18.8-4.3,19.8
		c3.9,1.2,12.1-4.6,24.1-9.6c14.5-6,31.4-12.3,45.6-22.4c16.1-11.4,28.6-28.9,40.8-49.7c13.5-22.9,25.1-46.8,44.8-63.5
		c8.3-7.1,18.5-12.3,29.3-13.6c10.9-1.3,23.1,1.1,35.2,5.2c28.7,9.9,58.1,26.8,95.2,38.2c38.3,11.8,80.3,15.8,118.6,19.2
		c10,0.9,19.3,1.7,27.4,3.1 M611,254.7c-10.5,9.6-22.7,19.1-35.4,28.2c-15,10.7-29.6,19.9-42,27.5c-9.6,5.9-18.1,10-16.7,12.3
		c1.3,2.1,10.5,1,22.3,0.8c15.7-0.2,34.9,0.3,56.2,3.4c5.2,0.8,10.5,1.7,15.7,2.8"/>
	<path fill="none" stroke="#6A69B0" stroke-width="0.1" d="M36.6,38.9c28-3,54.2-2.7,67.9,7.2c14.9,10.6,18.3,30,20.2,50.6
		c2.1,22,2.9,44.2,7.7,65.4c4.6,20.4,12.7,39.7,18.5,58.6c5.5,18,8,35.1,6.1,49.8c-0.8,6.2-2.2,11.5-3.7,15.8
		c-1.1,3.2-2.5,5.4-1.9,6.4c1.2,1.8,9.2-4.6,20.1-10c13.7-6.9,30.2-14.1,45-24.6c16.6-11.8,30.4-28.8,43.6-49.1
		c14.5-22.2,27.1-45.5,47-62.1c8.6-7.1,18.8-12.4,29.6-14c10.8-1.6,23,0.4,35.1,4.2c28.4,9,57.3,25.4,93.6,36.6
		c37.6,11.7,78.7,16.1,116.4,20c10.7,1.1,20.6,2.2,29.2,3.9 M611,254.3c-10.3,9.7-22.3,19.3-34.9,28.6c-14.7,10.7-29,19.9-41.3,27.7
		c-9.4,6-17.9,10.1-16.6,12.7c1.1,2.2,10.2,1.2,21.7,1.2c15.4-0.1,34.2,0.4,55.2,3.5c5.3,0.8,10.6,1.7,15.9,2.8"/>
	<path fill="none" stroke="#6A69B0" stroke-width="0.1" d="M39.5,40.4c28.6-4,55.1-5.1,68.3,4.3c14.3,10.2,16.1,29.7,16.5,50.5
		c0.5,22.3,0,44.8,4.6,66c4.5,20.3,13.6,39.3,20.9,58.1c7.1,18,11.1,35.4,9.9,50.8c-0.5,6.6-1.9,12.4-3.5,17c-1.3,3.6-2.7,6-3.2,7.4
		c-0.3,0.9,6.2-4.5,16.1-10.5c12.8-7.8,29.1-15.8,44.4-26.7c17.1-12.1,32.1-28.8,46.3-48.6c15.5-21.5,28.9-44.3,49.1-60.8
		c16.6-13.5,42.2-17.8,64.9-11.2c28,8.2,56.5,24,92,35.1c36.8,11.6,77.1,16.4,114.2,20.7c11.4,1.3,21.9,2.6,30.8,4.7 M611,253.9
		c-10.1,9.9-21.9,19.5-34.4,28.9c-14.4,10.8-28.5,20-40.6,27.8c-9.3,6.1-17.6,10.3-16.5,13c0.9,2.2,9.9,1.5,21.2,1.5
		c15.1,0,33.6,0.5,54.2,3.6c5.4,0.8,10.7,1.8,16.1,2.9"/>
	<path fill="none" stroke="#6A69B0" stroke-width="0.1" d="M42.5,41.9c29.1-4.8,55.9-7.4,68.7,1.6C124.9,53.2,125,72.9,124,94
		c-1.1,22.7-2.9,45.3,1.6,66.6c4.3,20.2,14.5,38.9,23.3,57.5c8.5,18,14.2,35.8,13.7,51.8c-0.2,7-1.5,13.2-3.4,18.3
		c-1.5,4-3.2,6.9-4.5,8.4c-0.2,0.2,3.3-4.5,12.1-11c11.9-8.7,27.9-17.5,43.8-28.8c17.5-12.5,33.7-28.7,49-48
		c16.5-20.9,30.7-43.1,51.3-59.4c17.1-13.6,42.4-18.6,65.1-12.6c27.7,7.4,55.8,22.6,90.5,33.7c36.1,11.5,75.5,16.7,112,21.4
		c12.1,1.6,23.2,3.1,32.5,5.7 M611,253.4c-9.8,10-21.5,19.8-34,29.3c-14.1,10.8-27.9,20.1-39.8,27.9c-9.2,6.1-17.4,10.5-16.4,13.3
		c0.8,2.2,9.6,1.7,20.6,1.8c14.8,0.1,33,0.7,53.3,3.7c5.4,0.8,10.9,1.8,16.3,3"/>
	<path fill="none" stroke="#6A69B0" stroke-width="0.1" d="M45.3,43.4c29.7-5.7,56.7-9.7,69-1.2c13.3,9.3,11.7,29.2,9.3,50.5
		c-2.6,23-5.7,45.9-1.4,67.1c4.1,20.1,15.4,38.6,25.6,57c10,18.1,17.3,36.2,17.5,52.9c0.1,7.4-1.2,14-3.3,19.5
		c-1.7,4.5-3.7,7.7-5.7,9.4c-0.9,0.8,0.4-4.5,8.2-11.5c10.9-9.5,26.8-19.2,43.2-30.9c18-12.8,35.3-28.7,51.6-47.5
		c17.4-20.2,32.6-41.9,53.3-58.1c17.5-13.7,42.6-19.3,65.3-13.9c27.4,6.6,55,21.3,89,32.2c35.4,11.4,74,17,109.9,22.1
		c12.8,1.8,24.5,3.7,34.1,6.7 M611,252.9c-9.6,10.1-21.2,20.1-33.5,29.7c-13.8,10.8-27.4,20.1-39.1,28.1
		c-9.1,6.2-17.2,10.6-16.3,13.6c0.7,2.2,9.3,2,20.1,2.1c14.5,0.2,32.3,0.8,52.3,3.8c5.5,0.8,11,1.8,16.5,3"/>
	<path fill="none" stroke="#6A69B0" stroke-width="0.1" d="M48.2,44.8c30.3-6.6,57.5-12,69.4-3.9c12.8,8.9,9.5,29,5.8,50.5
		c-4,23.3-8.5,46.4-4.3,67.7c4,20,16.4,38.2,28,56.4c11.5,18.1,20.4,36.5,21.1,53.9c0.3,7.8-0.8,14.8-3.1,20.7
		c-1.9,4.9-4.3,8.5-7,10.4c-2,1.4-2.6-4.5,4.4-11.9c9.9-10.4,25.7-20.9,42.6-33c18.5-13.1,36.9-28.6,54.1-47
		c18.3-19.6,34.3-40.7,55.4-56.8c18-13.7,42.8-20,65.5-15.2c27,5.8,54.3,19.9,87.5,30.7c34.7,11.3,72.5,17.2,107.8,22.8
		c13.5,2.1,25.8,4.3,35.7,7.8 M611,252.3c-9.4,10.3-20.8,20.4-33.1,30.2c-13.6,10.8-26.9,20.2-38.4,28.2c-9,6.3-16.9,10.8-16.2,13.9
		c0.6,2.2,9,2.2,19.5,2.5c14.2,0.3,31.7,1,51.4,3.9c5.6,0.8,11.1,1.9,16.7,3.1"/>
	<path fill="none" stroke="#6A69B0" stroke-width="0.1" d="M50.9,46.2c30.9-7.4,58.3-14.3,69.7-6.6c12.3,8.4,7.3,28.7,2.3,50.5
		c-5.5,23.6-11.2,46.9-7.2,68.2c3.8,19.9,17.3,37.9,30.2,55.9c13,18.1,23.4,36.8,24.7,54.9c1.2,15.5-3.5,28.3-11.3,33.2
		c-3.1,1.9-5.5-4.4,0.7-12.4c8.8-11.2,24.6-22.5,42.1-35c18.9-13.5,38.5-28.6,56.6-46.5c19.2-18.9,36.1-39.5,57.4-55.5
		c18.4-13.8,43.1-20.7,65.8-16.5c26.7,5,53.6,18.6,86,29.3c49.8,16.4,112.7,21.2,143,34 M611,251.8c-9.2,10.5-20.4,20.7-32.7,30.7
		c-13.2,10.8-26.4,20.2-37.7,28.3c-8.9,6.4-16.7,11-16.1,14.2c0.5,2.3,8.7,2.5,19,2.8c13.9,0.4,31.1,1.1,50.5,4.1
		c5.6,0.9,11.3,1.9,16.9,3.2"/>
	<path fill="none" stroke="#6A69B0" stroke-width="0.1" d="M53.7,47.7C70.3,43.3,85,39,98.1,36.8c10.7-1.8,20.5-1.8,25.7,1.7
		c11.9,8,5.3,28.5-1.2,50.5c-6.9,23.9-14,47.4-10.1,68.7c3.6,19.8,18.2,37.5,32.5,55.4c14.5,18.1,26.3,37.1,28.3,55.8
		c1.7,16.3-3.4,30-12.4,35.3c-2.6,1.5-6.1,1-6.7-1c-1-2.9,0.6-7.1,3.7-11.8c7.8-12,23.5-24.1,41.5-37c19.4-13.8,40-28.6,59.1-46
		c20.1-18.3,37.8-38.3,59.4-54.2c18.8-13.8,43.2-21.4,66-17.7c26.3,4.3,52.9,17.4,84.6,27.9c49.8,16.5,113.1,21.9,142.4,35.8
		 M611,251.1c-8.9,10.6-20.1,21.1-32.2,31.3c-13,10.8-25.8,20.3-37,28.4c-8.8,6.5-16.5,11.2-15.9,14.5c0.4,2.3,8.4,2.7,18.5,3.1
		c13.6,0.5,30.6,1.2,49.6,4.2c5.7,0.9,11.4,2,17,3.2"/>
	<path fill="none" stroke="#6A69B0" stroke-width="0.1" d="M56.3,49.1c17-4.8,31.8-9.6,45.1-12.4c10.7-2.3,20.4-2.7,25.3,0.6
		c11.5,7.7,3.2,28.2-4.5,50.5c-8.3,24.2-16.6,47.9-12.9,69.2c3.5,19.7,19.2,37.2,34.7,54.8c15.9,18.1,29.3,37.5,31.8,56.8
		c2.2,17-3.3,31.8-13.5,37.4c-3.2,1.8-7.4,1.3-8.6-0.7c-1.7-2.9-0.7-7.4,2-12.5c6.7-12.7,22.4-25.7,40.9-38.9
		c19.8-14.1,41.5-28.6,61.5-45.6c21-17.7,39.5-37.2,61.4-52.9c19.3-13.8,43.4-22,66.2-18.9c25.9,3.5,52.2,16.1,83.2,26.5
		c49.9,16.7,113.5,22.6,141.9,37.6 M611,250.5c-8.7,10.8-19.8,21.5-31.8,31.9c-12.7,10.9-25.4,20.3-36.3,28.6
		c-8.7,6.5-16.3,11.3-15.8,14.8c0.3,2.4,8.2,2.9,18,3.4c13.4,0.6,30,1.4,48.7,4.3c5.7,0.9,11.5,2,17.2,3.3"/>
	<path fill="none" stroke="#6A69B0" stroke-width="0.1" d="M58.9,50.5c17.3-5.2,32.4-10.5,45.8-13.8c10.7-2.7,20.4-3.5,25-0.5
		c11.1,7.3,1.1,28-7.8,50.5c-9.7,24.4-19.2,48.4-15.6,69.7c3.3,19.6,20.1,36.8,36.9,54.3c17.3,18.1,32.1,37.8,35.2,57.8
		c2.7,17.7-3.3,33.4-14.5,39.4c-3.7,2-8.6,1.7-10.4-0.5c-2.4-2.9-2-7.8,0.3-13.1c5.7-13.4,21.3-27.3,40.4-40.9
		c20.3-14.5,42.9-28.6,63.9-45.1c21.8-17.1,41.1-36.1,63.3-51.7c19.7-13.8,43.6-22.6,66.5-20.1c25.6,2.8,51.6,14.8,81.9,25.1
		c49.9,16.9,114,23.3,141.4,39.5 M611,249.8c-8.4,11-19.4,21.9-31.5,32.5c-12.4,10.9-24.8,20.4-35.6,28.7
		c-8.6,6.6-16.1,11.5-15.7,15.1c0.3,2.4,7.9,3.2,17.6,3.7c13.1,0.7,29.4,1.5,47.9,4.4c5.8,0.9,11.6,2,17.3,3.3"/>
	<path fill="none" stroke="#6A69B0" stroke-width="0.1" d="M61.5,51.8c17.6-5.6,32.9-11.4,46.4-15.3c10.7-3,20.3-4.4,24.7-1.6
		c10.8,6.9-0.9,27.7-11.1,50.5c-11.1,24.7-21.7,48.8-18.3,70.2c3.1,19.5,21,36.5,39,53.8c18.7,18.1,35,38,38.6,58.7
		c3.2,18.4-3.3,35.1-15.6,41.4c-4.3,2.2-9.8,2-12.3-0.3c-3-3-3.2-8.1-1.4-13.7c4.7-14.1,20.3-28.8,39.8-42.7
		c20.7-14.8,44.3-28.6,66.2-44.7c22.6-16.5,42.7-35,65.2-50.5c20.1-13.9,43.8-23.1,66.7-21.3c25.2,2.1,50.9,13.6,80.5,23.8
		c50.1,17.1,114.5,24.1,140.9,41.5 M611,249c-8.2,11.3-19.1,22.4-31.1,33.2c-12.1,10.9-24.3,20.4-35,28.8
		c-8.5,6.7-15.9,11.7-15.6,15.4c0.2,2.4,7.6,3.4,17.1,4c12.8,0.8,28.9,1.6,47.1,4.5c5.8,0.9,11.6,2.1,17.5,3.4"/>
	<path fill="none" stroke="#6A69B0" stroke-width="0.1" d="M64,53.2c18-6.1,33.5-12.3,47.1-16.7c10.7-3.4,20.2-5.3,24.4-2.6
		c4.4,2.8,3.4,9.7,0.7,17.7c-3.4,9.8-9,20.9-15,32.9c-12.4,24.9-24.2,49.3-20.9,70.7c3,19.4,21.9,36.1,41.1,53.3
		c20.1,18.1,37.8,38.3,41.9,59.6c3.7,19.1-3.3,36.7-16.7,43.4c-4.8,2.4-11,2.3-14.1-0.2c-3.7-3-4.5-8.4-3-14.3
		c3.7-14.7,19.3-30.3,39.3-44.6c21.1-15.1,45.7-28.7,68.5-44.3c23.4-16,44.3-33.9,67-49.3c20.5-13.9,44-23.7,66.9-22.4
		c24.8,1.4,50.3,12.4,79.2,22.4c30.9,10.7,64.1,18.7,95.9,26.5c17.7,4.4,34.2,10.1,44.5,17.7 M611,248.1
		c-7.9,11.5-18.7,22.9-30.7,34C568.5,293,556.4,302.6,546,311c-8.4,6.8-15.7,11.8-15.5,15.7c0.1,2.6,7.8,3.6,17.5,4.3
		c13.2,0.9,29.6,1.8,48.2,4.9c4.9,0.8,9.9,1.8,14.8,2.9"/>
	<path fill="none" stroke="#6A69B0" stroke-width="0.1" d="M66.5,54.5c18.3-6.5,34-13.2,47.7-18.1c10.7-3.8,20.1-6.1,24.1-3.7
		c4.1,2.6,2.6,9.5-0.6,17.4c-4,9.9-10.2,21-16.8,33.1c-13.6,25.2-26.6,49.7-23.5,71.2c2.9,19.3,22.8,35.8,43.2,52.8
		c21.5,18.1,40.5,38.6,45.1,60.5c4.1,19.7-3.4,38.2-17.7,45.3c-5.3,2.6-12.1,2.6-15.8,0c-4.3-3-5.7-8.7-4.6-14.9
		c2.7-15.3,18.3-31.7,38.8-46.4c21.6-15.4,47-28.7,70.8-43.9c24.1-15.4,45.8-32.8,68.9-48.1c20.9-13.9,44.1-24.2,67.2-23.5
		c24.4,0.7,49.7,11.2,78,21.1c30.3,10.6,62.8,18.9,94,27.1c18.5,4.9,35.7,11.2,45.8,19.5 M611,247.7c-7.3,11.2-18.2,22.9-30.4,34.4
		c-11.5,10.9-23.4,20.5-33.6,29c-8.3,6.9-15.5,12-15.4,15.9c0.1,2.6,7.6,3.8,17.1,4.6c12.9,0.9,29.1,1.9,47.4,5
		c5,0.8,9.9,1.8,14.9,3"/>
	<path fill="none" stroke="#6A69B0" stroke-width="0.1" d="M68.9,55.8c18.6-6.9,34.5-14.1,48.4-19.4c10.7-4.1,20-7,23.8-4.7
		c3.9,2.3,1.8,9.2-1.9,17.1c-4.6,10-11.4,21.2-18.7,33.4c-14.9,25.4-29,50.1-26.1,71.6c2.7,19.2,23.8,35.4,45.3,52.4
		c22.9,18.1,43.2,38.9,48.3,61.5c4.6,20.4-3.4,39.8-18.7,47.2c-5.8,2.8-13.2,2.9-17.6,0.2c-4.9-3.1-6.9-9-6.2-15.5
		c1.8-15.9,17.3-33.2,38.3-48.2c22-15.7,48.4-28.7,73-43.4c24.9-14.9,47.3-31.7,70.6-46.9c21.3-13.9,44.3-24.6,67.4-24.5
		c24,0.1,49.1,10,76.7,19.8c29.7,10.5,61.5,19.1,92.2,27.6c19.3,5.4,37.2,12.3,47.2,21.4 M611,246.6c-7,11.5-17.9,23.6-30,35.4
		c-11.3,10.9-22.9,20.6-33,29.1c-8.2,6.9-15.3,12.2-15.2,16.2c0,2.7,7.3,4.1,16.6,4.8c12.7,1.1,28.6,2,46.6,5.1c5,0.9,10,1.9,15,3"
		/>
	<path fill="none" stroke="#6A69B0" stroke-width="0.1" d="M71.3,57.1c19-7.3,35.1-14.9,49-20.8c10.8-4.5,19.9-7.9,23.5-5.7
		c3.7,2.2,1,9-3.1,16.8c-5.2,10-12.7,21.3-20.4,33.7c-16.1,25.7-31.4,50.5-28.6,72.1c2.6,19.1,24.7,35.1,47.3,51.9
		c24.2,18,45.8,39.2,51.4,62.3c5,21-3.4,41.3-19.8,49c-6.4,3-14.3,3.2-19.3,0.4c-5.4-3.1-8-9.3-7.7-16.1c0.9-16.5,16.3-34.6,37.8-50
		c22.4-16,49.7-28.8,75.1-43.1c25.6-14.4,48.8-30.7,72.4-45.8c21.7-13.9,44.5-25,67.7-25.6c23.6-0.5,48.5,8.9,75.5,18.5
		c29.1,10.4,60.3,19.3,90.4,28.2c20.1,5.9,38.8,13.5,48.4,23.5 M611,245.4c-6.6,11.9-17.5,24.3-29.7,36.5
		c-11,10.9-22.4,20.6-32.3,29.2c-8.1,7-15.1,12.3-15.1,16.5c0,2.7,7.1,4.3,16.2,5.1c12.5,1.1,28.2,2.2,45.9,5.2
		c5,0.9,10,1.9,15.1,3.1"/>
	<path fill="none" stroke="#6A69B0" stroke-width="0.1" d="M73.6,58.4c19.3-7.7,35.6-15.7,49.6-22.1c10.8-4.9,19.7-8.7,23.3-6.7
		c3.5,2,0.2,8.7-4.3,16.6c-5.9,10.1-13.8,21.5-22.2,34c-17.3,25.9-33.7,50.9-31,72.5c2.4,19,25.6,34.7,49.2,51.4
		c25.5,18,48.4,39.5,54.5,63.2c5.5,21.6-3.5,42.8-20.8,50.8c-6.8,3.2-15.4,3.5-20.9,0.6c-6-3.2-9.2-9.6-9.2-16.7
		c0-17,15.4-36,37.3-51.7c22.8-16.3,50.9-28.8,77.2-42.7c26.3-13.9,50.2-29.7,74.1-44.7c22.1-13.9,44.7-25.5,67.9-26.6
		c23.2-1.1,47.9,7.8,74.3,17.2c28.6,10.3,59,19.5,88.6,28.7c21,6.6,40.5,14.8,49.7,25.8 M611,244.1c-6.2,12.3-17,25.2-29.4,37.8
		c-10.8,10.9-21.9,20.6-31.7,29.3c-8,7.1-14.9,12.5-15,16.7c-0.1,2.8,6.9,4.5,15.8,5.4c12.2,1.2,27.7,2.3,45.2,5.3
		c5,0.9,10.1,1.9,15.1,3.1"/>
	<path fill="none" stroke="#6A69B0" stroke-width="0.1" d="M75.9,59.6C95.5,51.6,112,43,126.1,36.3c10.8-5.3,19.6-9.5,23-7.7
		c3.3,1.8-0.5,8.5-5.5,16.3c-6.4,10.1-15,21.6-23.9,34.3c-18.5,26.1-35.9,51.3-33.4,72.9c2.3,18.9,26.5,34.4,51.2,51
		c26.8,18,51,39.7,57.5,64.1c5.9,22.3-3.5,44.2-21.8,52.6c-7.3,3.4-16.5,3.7-22.6,0.7c-6.5-3.2-10.3-9.8-10.7-17.2
		c-0.9-17.6,14.5-37.3,36.9-53.4c23.2-16.6,52.1-28.9,79.3-42.3c27-13.4,51.6-28.7,75.8-43.6c22.5-13.9,44.9-25.9,68.2-27.6
		c22.9-1.7,47.3,6.7,73.1,16c28,10.2,57.8,19.6,86.9,29.2c22,7.2,42.3,16.2,50.9,28.3 M611,242.5c-5.8,12.7-16.5,26.2-29.1,39.3
		c-10.5,11-21.5,20.7-31.1,29.4c-7.9,7.1-14.7,12.6-14.9,17c-0.1,2.9,6.6,4.7,15.4,5.6c12,1.3,27.2,2.4,44.5,5.5
		c5,0.9,10.1,1.9,15.2,3.1"/>
	<path fill="none" stroke="#6A69B0" stroke-width="0.1" d="M78.1,60.9c19.9-8.4,36.6-17.4,50.8-24.6c10.9-5.6,19.4-10.3,22.7-8.7
		c3.1,1.6-1.3,8.2-6.7,16.1c-7,10.2-16.1,21.7-25.6,34.5c-19.6,26.3-38.2,51.7-35.7,73.4c2.2,18.9,27.3,34,53.1,50.5
		c28.1,18,53.5,40,60.4,64.9c6.3,22.8-3.6,45.6-22.7,54.3c-7.8,3.5-17.5,4-24.2,0.9c-7.1-3.3-11.4-10.1-12.1-17.8
		c-1.7-18.1,13.6-38.6,36.4-55c23.6-16.9,53.4-28.9,81.3-41.9c27.7-12.9,53-27.7,77.5-42.5c22.9-13.8,45.1-26.2,68.4-28.5
		c22.5-2.2,46.8,5.6,72,14.8c27.5,10.1,56.6,19.8,85.2,29.7c23,7.9,44.4,17.8,52.1,31.1 M611,240.7c-5.2,13.2-16,27.3-28.8,41
		c-10.3,11-21,20.7-30.5,29.4c-7.8,7.2-14.5,12.8-14.8,17.2c-0.1,2.9,6.4,4.9,15,5.9c11.8,1.4,26.8,2.5,43.8,5.6
		c5.1,0.9,10.2,2,15.3,3.2"/>
	<path fill="none" stroke="#6A69B0" stroke-width="0.1" d="M80.3,62.1c20.2-8.8,37.1-18.2,51.4-25.9c11-5.9,19.1-11.1,22.4-9.6
		c3,1.4-2,8-7.8,15.8c-7.6,10.2-17.2,21.9-27.3,34.8c-10.5,13.3-20.5,26.7-28,39.9c-6.9,12.1-11.2,23.6-10.1,33.9
		c2,18.8,28.2,33.7,55,50.1c29.3,17.9,55.9,40.3,63.3,65.8c6.7,23.4-3.6,47-23.7,56c-8.3,3.7-18.5,4.2-25.7,1.1
		c-7.6-3.3-12.4-10.4-13.5-18.3c-2.5-18.6,12.7-39.9,36-56.6c24-17.2,54.5-29,83.3-41.6c28.3-12.4,54.4-26.8,79.1-41.4
		c23.2-13.8,45.3-26.6,68.7-29.5c22.1-2.7,46.3,4.5,70.9,13.6c27,10,55.5,20,83.5,30.1c24.2,8.8,46.7,19.5,53.3,34.4 M611,238.5
		c-4.5,13.8-15.3,28.7-28.5,43.2c-10,11-20.6,20.8-29.9,29.5c-7.7,7.3-14.4,12.9-14.6,17.5c-0.2,3,6.2,5.1,14.7,6.1
		c11.6,1.5,26.3,2.6,43.1,5.7c5.1,0.9,10.2,2,15.3,3.2"/>
	<path fill="none" stroke="#6A69B0" stroke-width="0.1" d="M82.5,63.2c20.6-9.2,37.6-18.9,52-27.1c11-6.3,18.9-11.9,22.2-10.5
		c2.8,1.2-2.8,7.7-9,15.6c-8.1,10.2-18.3,22-28.9,35.1c-11,13.5-21.5,26.9-29.5,40.2c-7.2,12.1-11.8,23.7-10.8,34
		c1.9,18.7,29.1,33.3,56.9,49.6c30.5,17.9,58.3,40.5,66.1,66.6c7.1,24-3.7,48.3-24.7,57.6c-8.7,3.9-19.5,4.4-27.3,1.2
		c-8.1-3.4-13.5-10.6-14.9-18.8c-3.3-19.1,11.8-41.2,35.5-58.2c24.3-17.4,55.7-29.1,85.2-41.2c28.9-11.9,55.7-25.8,80.7-40.4
		c23.6-13.8,45.6-26.9,68.9-30.4c21.8-3.2,45.7,3.5,69.8,12.4c26.5,9.9,54.3,20.2,81.9,30.6c25.7,9.7,49.4,21.6,54.3,38.3
		c0,0.1,0.1,0.2,0.1,0.3 M611,235.4c-3.4,14.7-14.5,30.7-28.3,46.2c-9.7,11-20.1,20.8-29.3,29.6c-7.6,7.3-14.2,13.1-14.5,17.7
		c-0.2,3,6,5.2,14.3,6.4c11.4,1.5,25.9,2.8,42.4,5.8c5.1,0.9,10.2,2,15.4,3.3"/>
	<path fill="none" stroke="#6A69B0" stroke-width="0.1" d="M84.5,64.4c20.9-9.5,38.2-19.7,52.6-28.3c11.1-6.6,18.6-12.6,21.9-11.4
		c2.8,1-3.4,7.5-10.1,15.4c-8.6,10.3-19.3,22.2-30.5,35.3c-11.6,13.6-22.6,27.1-30.9,40.5c-7.6,12.2-12.5,23.8-11.5,34
		c1.8,18.6,29.9,33,58.7,49.2c31.7,17.9,60.6,40.8,68.8,67.4c7.5,24.6-3.8,49.7-25.6,59.3c-9.2,4-20.5,4.6-28.8,1.4
		c-8.6-3.4-14.5-10.9-16.3-19.3c-4.1-19.6,11-42.4,35.1-59.8c24.7-17.7,56.8-29.1,87.1-40.9c29.6-11.5,56.9-24.9,82.2-39.4
		c23.9-13.8,45.8-27.2,69.1-31.2c21.4-3.7,45.2,2.4,68.7,11.3c26,9.8,53.2,20.3,80.3,31c25.4,10,48.9,22.1,54.2,38.9
		c0.7,2.4,1.2,4.8,1.3,7.4 M611,229c-0.9,16.3-12.6,34.8-28,52.6c-9.5,11-19.7,20.8-28.7,29.7c-7.5,7.4-14,13.2-14.4,17.9
		c-0.2,3.1,5.8,5.4,13.9,6.6c11.2,1.6,25.5,2.9,41.8,5.9c5.1,0.9,10.3,2,15.4,3.3"/>
	<path fill="none" stroke="#6A69B0" stroke-width="0.1" d="M86.6,65.6c21.2-9.9,38.7-20.4,53.1-29.5c11.1-6.9,18.2-13.3,21.7-12.3
		c2.7,0.8-4.2,7.2-11.2,15.1c-9.2,10.3-20.3,22.3-32,35.6c-12.1,13.7-23.6,27.3-32.4,40.8c-8,12.2-13.2,23.8-12.2,34.1
		c1.7,18.5,30.7,32.6,60.5,48.8c32.9,17.8,63,41,71.5,68.2c7.9,25.1-3.9,51-26.5,60.8c-9.6,4.2-21.5,4.8-30.2,1.5
		c-9.1-3.5-15.5-11.1-17.6-19.8c-4.8-20,10.2-43.7,34.7-61.3c25.1-18,58-29.2,88.9-40.6c30.2-11.1,58.2-24,83.7-38.4
		c24.3-13.7,46-27.5,69.4-32.1c21.1-4.2,44.7,1.4,67.7,10.1c25.5,9.7,52.1,20.5,78.7,31.5c25.1,10.4,48.5,22.6,54.1,39.5
		c6.1,18.6-6.6,41.8-25.2,63.8c-9.3,11-19.3,20.9-28.1,29.8c-7.4,7.5-13.8,13.4-14.3,18.1c-0.3,3.2,5.6,5.6,13.6,6.9
		c11,1.7,25,3,41.1,6c5.1,1,10.3,2.1,15.5,3.4"/>
	<path fill="none" stroke="#6A69B0" stroke-width="0.1" d="M88.6,66.7c21.5-10.2,39.2-21.2,53.7-30.6c11.1-7.2,17.9-13.9,21.4-13.2
		c2.7,0.5-4.9,7-12.2,14.9c-9.7,10.3-21.3,22.4-33.5,35.8c-12.6,13.8-24.5,27.6-33.7,41.1c-8.3,12.3-13.8,23.9-12.9,34.1
		c1.6,18.4,31.5,32.3,62.2,48.4c34,17.8,65.2,41.3,74.1,69c8.2,25.7-3.9,52.2-27.4,62.4c-10.1,4.4-22.4,5.1-31.7,1.6
		c-9.6-3.6-16.4-11.3-18.9-20.3c-5.5-20.5,9.4-44.8,34.3-62.8C189.3,229,223,218,254.7,207c30.7-10.7,59.4-23.1,85.2-37.4
		c24.6-13.7,46.3-27.8,69.6-32.9c20.8-4.6,44.3,0.5,66.7,9c25,9.6,51,20.6,77.2,31.9c24.8,10.7,48,23.1,53.9,40.1
		c6.4,18.6-5.7,41.8-23.8,63.8c-9,11-18.9,20.9-27.6,29.8c-7.3,7.5-13.7,13.5-14.2,18.4c-0.3,3.2,5.4,5.8,13.3,7.1
		c10.8,1.8,24.6,3.1,40.5,6.1c5.1,1,10.3,2.1,15.5,3.4"/>
	<path fill="none" stroke="#6A69B0" stroke-width="0.1" d="M90.5,67.8c21.8-10.6,39.6-21.9,54.2-31.7c11.2-7.5,17.4-14.2,21.2-14
		c2.7,0.2-5.5,6.8-13.3,14.7c-10.2,10.4-22.4,22.5-35,36c-13.1,13.9-25.5,27.7-35.1,41.4c-8.6,12.3-14.4,24-13.6,34.2
		c1.5,18.4,32.3,32,63.9,48c35.1,17.8,67.4,41.5,76.7,69.8c8.6,26.2-4,53.4-28.3,63.9c-10.5,4.5-23.3,5.2-33.1,1.8
		c-10-3.6-17.4-11.6-20.1-20.8c-6.2-20.9,8.6-46,33.9-64.2c25.8-18.5,60.1-29.3,92.5-40c31.3-10.3,60.6-22.2,86.6-36.5
		c25-13.7,46.5-28,69.9-33.7c20.5-5,43.8-0.5,65.7,8c24.6,9.5,50,20.8,75.7,32.3c24.5,11,47.6,23.6,53.8,40.7
		c6.7,18.6-4.8,41.8-22.4,63.8c-8.8,11-18.5,20.9-27,29.9c-7.2,7.6-13.5,13.6-14,18.6c-0.4,3.3,5.2,5.9,12.9,7.3
		c10.6,1.9,24.2,3.2,39.9,6.2c5.1,1,10.3,2.1,15.5,3.4"/>
	<path fill="none" stroke="#6A69B0" stroke-width="0.1" d="M92.4,68.9c22-10.9,40.1-22.6,54.8-32.8c6.1-4.3,11.1-7.9,15.1-10.9
		c2.9-2.2,4.7-3.9,5.8-4c2.5-0.4-6.2,6.5-14.3,14.5C143,46.1,130.5,58.4,117.3,72c-13.6,14-26.4,28-36.5,41.7
		c-8.9,12.4-15,24-14.2,34.2c1.4,18.3,33.1,31.6,65.6,47.6c36.2,17.7,69.5,41.8,79.2,70.6c8.9,26.7-4.1,54.6-29.2,65.4
		c-10.9,4.6-24.2,5.4-34.4,1.9c-10.5-3.7-18.3-11.8-21.3-21.3c-6.9-21.4,7.8-47.1,33.6-65.6c26.1-18.7,61.2-29.4,94.2-39.7
		c31.9-9.9,61.7-21.4,88.1-35.6c25.3-13.6,46.8-28.2,70.1-34.5c20.2-5.4,43.3-1.4,64.8,6.9c24.1,9.4,48.9,20.9,74.2,32.7
		c24.2,11.3,47.1,24.1,53.7,41.3c7,18.6-3.9,41.8-21.1,63.8c-8.6,11-18.1,21-26.5,30c-7.1,7.6-13.3,13.8-13.9,18.8
		c-0.4,3.4,5,6.1,12.6,7.5c10.4,1.9,23.9,3.3,39.3,6.3c5.1,1,10.3,2.2,15.5,3.5"/>
	<path fill="none" stroke="#6A69B0" stroke-width="0.1" d="M94.2,69.9c22.3-11.2,40.6-23.3,55.3-33.9c11.3-8.1,17.5-14.1,20.7-15.6
		c2-1.1-6.8,6.4-15.3,14.3c-11.2,10.5-24.2,22.8-37.9,36.5c-14,14.1-27.4,28.1-37.8,42c-9.3,12.4-15.6,24.1-14.9,34.3
		c1.3,18.2,33.9,31.3,67.3,47.2c37.3,17.7,71.6,42,81.6,71.3c9.3,27.2-4.2,55.8-30.1,66.8c-11.3,4.8-25.1,5.6-35.8,2
		c-11-3.7-19.2-12-22.5-21.7c-7.5-21.8,7.1-48.2,33.2-67c26.4-19,62.2-29.5,95.9-39.4c32.4-9.5,62.9-20.6,89.4-34.7
		c25.6-13.6,47.1-28.5,70.3-35.3c19.9-5.8,42.9-2.3,63.8,5.8c23.7,9.3,48,21.1,72.8,33c24,11.6,46.7,24.5,53.5,41.9
		c7.3,18.6-3,41.8-19.8,63.8c-8.4,11-17.7,21-26,30.1c-7,7.7-13.2,13.9-13.8,19c-0.4,3.4,4.8,6.3,12.3,7.7c10.2,2,23.5,3.4,38.8,6.4
		c5.1,1,10.3,2.2,15.6,3.5"/>
	<path fill="none" stroke="#6A69B0" stroke-width="0.1" d="M96,71c22.6-11.5,41.1-23.9,55.8-35c6.2-4.6,11.2-8.6,15.1-11.8
		c2.9-2.4,4.8-3.9,5.3-4.6c1.1-1.6-7.4,6.1-16.3,14.1c-11.6,10.5-25.1,22.9-39.3,36.7c-14.5,14.2-28.3,28.3-39,42.3
		c-9.5,12.4-16.1,24.1-15.5,34.3c0.6,9.1,8.7,17.6,20.3,24.2c13.4,7.7,30.7,14.3,48.6,22.6c38.3,17.7,73.7,42.2,84,72
		c9.6,27.7-4.3,56.9-30.9,68.2c-11.7,4.9-26,5.8-37.1,2.1c-11.4-3.8-20.1-12.3-23.7-22.2c-8.2-22.2,6.4-49.3,32.8-68.3
		c26.8-19.2,63.2-29.6,97.5-39.1c33-9.1,63.9-19.7,90.8-33.8c25.9-13.6,47.3-28.7,70.6-36c19.7-6.2,42.5-3.2,62.9,4.8
		c23.3,9.2,47,21.2,71.4,33.4c23.7,11.8,46.3,25,53.4,42.5c7.5,18.6-2.2,41.8-18.5,63.8c-8.2,11-17.3,21-25.4,30.1
		c-7,7.7-13,14-13.7,19.2c-0.5,3.5,4.7,6.4,12,7.9c10,2.1,23.1,3.5,38.2,6.5c5.2,1,10.4,2.2,15.6,3.5"/>
	<path fill="none" stroke="#6A69B0" stroke-width="0.1" d="M97.8,72c22.8-11.9,41.4-24.6,56.3-36c6.2-4.8,11.3-8.8,15.1-12.3
		c2.9-2.5,5-4.1,5.1-5c0.4-1.8-8,5.9-17.2,13.9c-12.1,10.5-26,23-40.6,37c-15,14.3-29.2,28.5-40.3,42.5
		c-9.9,12.5-16.7,24.2-16.1,34.4c0.6,9.1,8.8,17.5,20.7,24c13.7,7.6,31.5,14.2,49.8,22.4c39.3,17.6,75.6,42.5,86.3,72.7
		c9.9,28.1-4.4,58.1-31.8,69.5c-12.1,5.1-26.8,6-38.3,2.2c-11.8-3.9-20.9-12.5-24.8-22.6c-8.8-22.6,5.6-50.4,32.5-69.6
		c27.1-19.4,64.2-29.6,99.1-38.8c33.5-8.8,65-19,92.1-32.9c26.2-13.5,47.6-28.9,70.8-36.7c19.4-6.5,42.1-4.1,62,3.8
		c22.9,9.1,46,21.3,70,33.8c23.4,12.1,45.9,25.5,53.3,43c7.8,18.6-1.3,41.8-17.2,63.8c-7.9,11-16.9,21.1-24.9,30.2
		c-6.9,7.8-12.9,14.1-13.6,19.4c-0.5,3.5,4.5,6.6,11.7,8.1c9.8,2.1,22.8,3.6,37.7,6.6c5.2,1,10.4,2.2,15.6,3.6"/>
	<path fill="none" stroke="#6A69B0" stroke-width="0.1" d="M99.5,73c23.1-12.2,41.9-25.3,56.8-37c6.2-4.9,11.3-9.1,15.1-12.7
		c2.9-2.6,5-4.4,4.9-5.3c-0.2-1.9-8.6,5.7-18.2,13.7c-12.6,10.5-26.9,23.1-41.9,37.2c-15.4,14.4-30,28.7-41.5,42.8
		c-10.2,12.5-17.2,24.3-16.7,34.4c0.5,9,9,17.4,21,23.8c14.1,7.5,32.2,14,51,22.2c40.3,17.6,77.6,42.7,88.6,73.4
		c10.2,28.6-4.6,59.1-32.6,70.9c-12.5,5.2-27.6,6.1-39.6,2.3c-12.2-3.9-21.7-12.7-26-23.1c-9.4-23,5-51.4,32.2-70.9
		c27.4-19.6,65.1-29.7,100.7-38.5c34-8.4,66-18.2,93.4-32.1c26.5-13.5,47.9-29.1,71-37.4c19.2-6.9,41.7-5,61.2,2.9
		c22.5,9,45.1,21.5,68.7,34.1c23.1,12.4,45.4,25.9,53.1,43.6c8,18.6-0.5,41.8-16,63.8c-7.8,11-16.5,21.1-24.4,30.2
		c-6.8,7.8-12.7,14.2-13.5,19.5c-0.5,3.6,4.3,6.7,11.4,8.3c9.7,2.2,22.4,3.7,37.1,6.6c5.2,1,10.4,2.2,15.6,3.6"/>
	<path fill="none" stroke="#6A69B0" stroke-width="0.1" d="M101.1,73.9c23.4-12.4,42.4-25.9,57.3-38c6.3-5,11.2-9.5,15.1-13.1
		c2.8-2.7,5.1-4.6,4.7-5.6c-0.6-1.9-9.2,5.5-19.1,13.5c-13.1,10.5-27.8,23.3-43.2,37.4c-15.8,14.5-30.8,28.9-42.6,43.1
		c-10.4,12.5-17.8,24.3-17.2,34.5c0.4,9,9.1,17.3,21.4,23.7c14.4,7.5,32.9,13.9,52.2,22.1c41.2,17.6,79.5,42.9,90.8,74.1
		c10.5,29.1-4.7,60.2-33.4,72.1c-12.8,5.3-28.4,6.3-40.8,2.4c-12.6-4-22.5-12.9-27-23.5c-9.9-23.4,4.3-52.4,31.9-72.2
		c27.7-19.8,66.1-29.8,102.2-38.3c34.5-8.1,67-17.4,94.6-31.3c26.8-13.4,48.2-29.3,71.2-38.1c19-7.2,41.3-5.8,60.4,1.9
		c22.1,8.9,44.2,21.6,67.4,34.4c22.9,12.7,45,26.3,53,44.1c8.3,18.6,0.2,41.8-14.8,63.8c-7.6,11-16.2,21.1-24,30.3
		c-6.7,7.9-12.6,14.4-13.4,19.7c-0.5,3.7,4.2,6.9,11.2,8.5c9.5,2.3,22.1,3.8,36.6,6.7c5.2,1.1,10.4,2.3,15.6,3.7"/>
	<path fill="none" stroke="#6A69B0" stroke-width="0.1" d="M102.8,74.9c23.6-12.7,42.7-26.5,57.8-38.9c6.3-5.2,11.3-9.7,15.1-13.5
		c2.8-2.9,4.9-4.9,4.5-5.9c-0.9-2-9.7,5.3-20,13.4c-13.4,10.6-28.5,23.4-44.4,37.6c-16.3,14.6-31.7,29-43.8,43.3
		c-10.7,12.6-18.3,24.3-17.8,34.5c0.4,9,9.2,17.2,21.7,23.5c14.7,7.4,33.6,13.7,53.3,21.9c42.2,17.6,81.3,43.1,92.9,74.8
		c10.7,29.5-4.8,61.2-34.2,73.4c-13.2,5.4-29.2,6.5-42,2.5c-13-4-23.3-13.1-28.1-23.9c-10.5-23.7,3.7-53.3,31.6-73.4
		c28-20.1,67-29.9,103.6-38c34.9-7.8,68-16.7,95.8-30.5c27-13.4,48.5-29.5,71.5-38.8c18.8-7.5,40.9-6.6,59.6,1
		c21.8,8.9,43.3,21.7,66.2,34.7c22.6,12.9,44.6,26.8,52.8,44.6c8.5,18.6,1,41.7-13.7,63.7c-7.4,11-15.8,21.1-23.5,30.4
		c-6.6,8-12.4,14.5-13.3,19.9c-0.6,3.7,4,7,10.9,8.7c9.3,2.3,21.8,3.8,36.1,6.8c5.2,1.1,10.4,2.3,15.6,3.7"/>
	<path fill="none" stroke="#6A69B0" stroke-width="0.1" d="M104.3,75.8c23.9-13,43.1-27.1,58.2-39.8c6.3-5.3,11.3-10,15-13.9
		c2.8-3,4.9-5.1,4.3-6.2c-1.1-2-10.3,5.1-20.8,13.2c-13.8,10.6-29.3,23.5-45.7,37.8C98.8,81.6,83,96.1,70.6,110.4
		c-11,12.6-18.7,24.4-18.3,34.5c0.4,8.9,9.4,17.1,22.1,23.3c15.1,7.3,34.3,13.6,54.4,21.8c43.1,17.5,83.1,43.4,94.9,75.5
		c11,29.9-4.9,62.2-35,74.6c-13.5,5.5-29.9,6.6-43.1,2.6c-13.4-4.1-24-13.3-29.1-24.3c-11-24.1,3.1-54.3,31.3-74.5
		c28.3-20.3,67.9-29.9,105.1-37.8c35.4-7.5,68.9-16,97-29.7c27.3-13.3,48.8-29.7,71.7-39.4c18.6-7.9,40.5-7.4,58.8,0.1
		c21.4,8.8,42.5,21.8,64.9,35.1c22.4,13.2,44.2,27.2,52.7,45.1c8.7,18.6,1.7,41.8-12.6,63.7c-7.2,11-15.5,21.2-23,30.4
		c-6.5,8-12.3,14.6-13.1,20.1c-0.6,3.8,3.8,7.1,10.6,8.9c9.2,2.4,21.5,3.9,35.6,6.9c5.2,1.1,10.4,2.3,15.6,3.7"/>
	<path fill="none" stroke="#6A69B0" stroke-width="0.1" d="M105.8,76.7C129.9,63.4,149.4,49,164.5,36c6.3-5.5,11.4-10.3,15-14.3
		c2.8-3,4.8-5.4,4.1-6.4c-1.3-2.1-10.8,5-21.7,13c-14.2,10.7-30.2,23.6-46.8,38C98.1,81,82,95.6,69.3,110
		C58,122.6,50,134.4,50.4,144.6c0.3,8.9,9.5,17,22.4,23.1c15.4,7.3,35,13.5,55.4,21.6c44,17.5,84.8,43.6,96.9,76.1
		c11.2,30.3-5,63.2-35.8,75.8c-13.8,5.7-30.7,6.8-44.2,2.7c-13.8-4.1-24.8-13.5-30.1-24.7c-11.5-24.5,2.5-55.2,31-75.7
		c28.6-20.4,68.7-30,106.4-37.5c35.8-7.2,69.8-15.3,98.1-28.9c27.6-13.3,49-29.9,71.9-40c18.4-8.2,40.1-8.1,58-0.7
		c21.1,8.7,41.6,21.9,63.8,35.3c22.1,13.4,43.9,27.6,52.5,45.6c8.9,18.6,2.4,41.7-11.5,63.7c-7,11-15.1,21.2-22.6,30.5
		c-6.4,8-12.1,14.7-13,20.2c-0.6,3.8,3.7,7.3,10.4,9.1c9,2.4,21.1,4,35.2,7c5.2,1.1,10.4,2.3,15.6,3.8"/>
	<path fill="none" stroke="#6A69B0" stroke-width="0.1" d="M107.3,77.6c24.3-13.5,44-28.2,59.1-41.6c6.4-5.6,11.4-10.5,15-14.7
		c2.7-3.2,4.7-5.6,4-6.7c-1.5-2.1-11.3,4.8-22.5,12.9c-14.6,10.7-30.9,23.7-48,38.2c-17.5,14.8-33.9,29.5-47,44
		c-11.5,12.7-19.7,24.5-19.3,34.6c0.3,8.9,9.7,16.9,22.7,23c15.7,7.2,35.6,13.3,56.5,21.5c44.8,17.5,86.5,43.8,98.9,76.7
		c11.5,30.7-5.1,64.1-36.5,76.9c-14.2,5.8-31.4,6.9-45.3,2.8c-14.1-4.2-25.5-13.7-31-25.1c-12-24.8,1.9-56.1,30.8-76.8
		c28.8-20.7,69.6-30.1,107.8-37.3c36.3-6.9,70.7-14.7,99.2-28.2c27.8-13.2,49.3-30,72.1-40.6c18.3-8.4,39.8-8.8,57.3-1.6
		c20.7,8.6,40.8,22,62.6,35.6c21.8,13.7,43.5,28,52.4,46c9.1,18.6,3.1,41.7-10.4,63.7c-6.8,11-14.8,21.2-22.2,30.5
		c-6.4,8.1-12,14.8-12.9,20.4c-0.6,3.9,3.5,7.4,10.2,9.2c8.9,2.5,20.9,4.1,34.7,7.1c5.2,1.1,10.4,2.4,15.6,3.8"/>
	<path fill="none" stroke="#6A69B0" stroke-width="0.1" d="M108.7,78.4c24.6-13.8,44.4-28.8,59.5-42.4
		c11.8-10.6,21.2-18.7,18.8-22.1c-1.7-2.2-11.8,4.6-23.3,12.7c-15,10.7-31.7,23.8-49.1,38.4c-17.9,14.9-34.6,29.7-48,44.2
		c-11.7,12.7-20.2,24.5-19.8,34.6c0.3,8.8,9.8,16.8,23.1,22.8c16,7.2,36.3,13.2,57.5,21.3c45.6,17.5,88.1,44,100.7,77.3
		c11.7,31.1-5.3,65-37.2,78c-14.5,5.9-32,7-46.3,2.9c-14.5-4.2-26.2-13.9-31.9-25.4c-12.5-25.1,1.3-56.9,30.5-77.9
		c29.1-20.8,70.4-30.1,109.1-37.1c36.7-6.6,71.6-14,100.3-27.5c28.1-13.2,49.6-30.2,72.3-41.1c18.1-8.7,39.5-9.6,56.6-2.4
		c20.4,8.6,40,22.1,61.5,35.9c21.6,13.9,43.1,28.3,52.2,46.5c9.3,18.6,3.8,41.7-9.4,63.7c-6.7,11-14.5,21.2-21.7,30.6
		c-6.3,8.1-11.9,14.9-12.8,20.5c-0.6,3.9,3.4,7.5,9.9,9.4c8.7,2.5,20.6,4.2,34.3,7.1c5.2,1.1,10.4,2.4,15.6,3.8"/>
	<path fill="none" stroke="#6A69B0" stroke-width="0.1" d="M110.1,79.2c24.8-14,44.7-29.3,60-43.3c11.8-10.9,21.2-19.3,18.6-22.7
		c-1.8-2.3-12.3,4.4-24,12.6c-15.4,10.7-32.4,23.9-50.1,38.6c-18.2,15-35.3,29.9-49,44.4c-11.9,12.7-20.6,24.5-20.3,34.7
		c0.2,8.8,9.9,16.8,23.4,22.6c16.2,7.1,36.9,13.1,58.5,21.2c46.4,17.4,89.7,44.2,102.6,77.9c12,31.5-5.4,65.9-37.9,79.1
		c-14.8,6-32.7,7.2-47.3,3c-14.8-4.3-26.8-14-32.8-25.8c-13-25.4,0.8-57.8,30.2-78.9c29.3-21,71.2-30.2,110.3-36.8
		c37.1-6.3,72.4-13.4,101.3-26.8c28.3-13.2,49.9-30.3,72.5-41.7c18-9,39.1-10.3,55.9-3.2c20.1,8.5,39.3,22.2,60.4,36.2
		c21.4,14.1,42.8,28.7,52.1,47c9.5,18.7,4.4,41.7-8.4,63.7c-6.5,11-14.2,21.2-21.3,30.6c-6.2,8.2-11.8,15-12.7,20.7
		c-0.7,4,3.3,7.6,9.7,9.6c8.6,2.6,20.3,4.3,33.9,7.2c5.2,1.1,10.4,2.4,15.6,3.9"/>
	<path fill="none" stroke="#6A69B0" stroke-width="0.1" d="M111.4,80c25-14.3,45-29.8,60.4-44.1c11.9-11.1,21.2-19.8,18.4-23.3
		c-2-2.4-12.8,4.3-24.8,12.5c-15.7,10.7-33,24-51.2,38.7c-18.6,15.1-36,30-49.9,44.6c-12.1,12.8-21,24.6-20.7,34.7
		c0.2,8.7,10.1,16.7,23.7,22.5c16.5,7,37.5,12.9,59.4,21c47.2,17.4,91.2,44.4,104.3,78.5c12.2,31.9-5.5,66.7-38.6,80.1
		c-15.1,6.1-33.4,7.3-48.3,3.1c-15.2-4.3-27.5-14.2-33.7-26.1c-13.4-25.8,0.3-58.6,30-79.9c29.6-21.2,71.9-30.2,111.5-36.6
		c37.5-6.1,73.2-12.8,102.3-26.2c28.5-13.1,50.1-30.5,72.7-42.2c17.8-9.3,38.8-10.9,55.2-4c19.8,8.4,38.5,22.3,59.4,36.4
		c21.1,14.3,42.4,29.1,51.9,47.4c9.7,18.7,5.1,41.7-7.5,63.7c-6.3,11.1-13.9,21.3-20.9,30.7c-6.1,8.2-11.6,15.1-12.6,20.8
		c-0.7,4,3.1,7.7,9.5,9.7c8.4,2.6,20,4.3,33.4,7.3c5.1,1.1,10.4,2.4,15.6,3.9"/>
	<path fill="none" stroke="#6A69B0" stroke-width="0.1" d="M112.7,80.8c25.2-14.5,45.4-30.3,60.7-44.8
		c11.9-11.3,21.3-20.3,18.3-23.9c-2.1-2.5-13.2,4.1-25.5,12.3c-16,10.8-33.7,24.1-52.2,38.9c-18.9,15.1-36.6,30.1-50.8,44.8
		c-12.4,12.8-21.4,24.6-21.2,34.7c0.2,8.7,10.2,16.6,24,22.3c16.8,7,38,12.8,60.3,20.9c48,17.4,92.7,44.6,106,79
		c12.4,32.2-5.6,67.6-39.3,81.1c-15.4,6.2-34,7.4-49.2,3.1c-15.5-4.4-28.1-14.4-34.5-26.5c-13.8-26.1-0.2-59.3,29.8-80.9
		c29.8-21.3,72.7-30.3,112.7-36.4c37.9-5.8,73.9-12.2,103.2-25.5c28.7-13.1,50.4-30.6,72.9-42.7c17.7-9.5,38.5-11.6,54.6-4.7
		c19.5,8.4,37.8,22.4,58.4,36.7c20.9,14.5,42.1,29.4,51.8,47.8c9.8,18.7,5.7,41.7-6.5,63.7c-6.2,11.1-13.6,21.3-20.5,30.7
		c-6.1,8.3-11.5,15.1-12.5,21c-0.7,4.1,3,7.8,9.3,9.9c8.3,2.7,19.8,4.4,33.1,7.4c5.1,1.1,10.4,2.4,15.6,3.9"/>
	<path fill="none" stroke="#6A69B0" stroke-width="0.1" d="M113.9,81.5c25.4-14.7,45.7-30.8,61.1-45.6c12-11.5,21.2-20.8,18.1-24.4
		c-2.3-2.6-13.6,4-26.2,12.2c-16.3,10.8-34.4,24.2-53.1,39.1C94.6,78,76.6,93,62.1,107.8c-12.6,12.8-21.7,24.6-21.6,34.7
		c0.2,8.7,10.3,16.5,24.3,22.2c17.1,6.9,38.6,12.7,61.2,20.8c48.7,17.4,94.1,44.8,107.6,79.6c12.6,32.6-5.7,68.4-39.9,82.1
		c-15.7,6.3-34.6,7.5-50.1,3.2c-15.8-4.4-28.7-14.5-35.3-26.8c-14.2-26.4-0.7-60.1,29.6-81.8c30.1-21.5,73.4-30.3,113.8-36.2
		c38.3-5.6,74.6-11.6,104.2-24.9c28.9-13,50.6-30.8,73-43.2c17.6-9.8,38.2-12.2,54-5.4c19.2,8.3,37.1,22.5,57.4,36.9
		c20.7,14.7,41.7,29.8,51.6,48.2c10,18.7,6.2,41.7-5.7,63.7c-6,11.1-13.3,21.3-20.2,30.7c-6,8.3-11.4,15.2-12.5,21.1
		c-0.7,4.1,2.9,7.9,9.1,10c8.2,2.7,19.5,4.5,32.7,7.4c5.1,1.2,10.4,2.5,15.6,3.9"/>
	<path fill="none" stroke="#6A69B0" stroke-width="0.1" d="M115.1,82.2c25.6-15,46.1-31.3,61.5-46.3c12-11.7,21.2-21.2,17.9-25
		c-2.4-2.6-14.1,3.8-26.9,12.1c-16.7,10.8-34.9,24.3-54.1,39.2c-19.5,15.3-37.8,30.4-52.5,45.2c-12.7,12.8-22.2,24.7-22,34.8
		c0.1,8.6,10.4,16.4,24.5,22c17.3,6.9,39.1,12.6,62.1,20.7c49.4,17.3,95.5,44.9,109.2,80.1c12.8,32.9-5.8,69.1-40.6,83
		c-15.9,6.3-35.1,7.6-51,3.2c-16.1-4.5-29.3-14.7-36.1-27.1c-14.7-26.6-1.2-60.8,29.4-82.7c30.3-21.6,74.1-30.4,114.9-36
		c38.6-5.3,75.3-11.1,105.1-24.3c29.1-13,50.9-30.9,73.2-43.7c17.5-10,37.9-12.8,53.4-6.1c19,8.2,36.5,22.5,56.4,37.1
		c20.5,14.9,41.4,30.1,51.5,48.6c10.2,18.7,6.8,41.7-4.8,63.7c-5.8,11.1-13.1,21.3-19.8,30.8c-5.9,8.3-11.3,15.3-12.4,21.2
		c-0.7,4.2,2.8,8,8.9,10.1c8,2.8,19.3,4.6,32.3,7.5c5.1,1.2,10.4,2.5,15.6,4"/>
	<path fill="none" stroke="#6A69B0" stroke-width="0.1" d="M116.3,82.9c25.8-15.1,46.4-31.7,61.8-47c12.1-11.9,21.2-21.7,17.8-25.5
		c-2.5-2.7-14.5,3.7-27.5,11.9c-17,10.8-35.5,24.4-55,39.4C93.7,77.2,75,92.3,60,107.2c-13,12.9-22.5,24.7-22.4,34.8
		c0.1,8.6,10.5,16.3,24.8,21.9c17.5,6.8,39.7,12.5,62.9,20.6c50.1,17.3,96.9,45.1,110.7,80.6c13,33.2-6,69.9-41.2,83.9
		c-16.2,6.4-35.7,7.7-51.9,3.3c-16.4-4.5-29.8-14.8-36.8-27.4c-15.1-26.9-1.6-61.5,29.2-83.6c30.5-21.8,74.7-30.4,116-35.9
		c39-5.1,76-10.6,105.9-23.8c29.3-12.9,51.1-31,73.4-44.1c17.4-10.2,37.7-13.4,52.8-6.8c18.7,8.2,35.8,22.6,55.5,37.4
		c20.2,15.1,41.1,30.4,51.4,49c10.3,18.7,7.3,41.7-4,63.7c-5.7,11.1-12.8,21.3-19.5,30.8c-5.9,8.4-11.2,15.4-12.3,21.4
		c-0.8,4.2,2.7,8.1,8.7,10.3c7.9,2.8,19,4.6,31.9,7.6c5.1,1.2,10.4,2.5,15.6,4"/>
	<path fill="none" stroke="#6A69B0" stroke-width="0.1" d="M117.4,83.6c26-15.3,46.7-32.1,62.2-47.7c12.1-12.1,21.3-22.1,17.6-26
		c-2.7-2.8-14.9,3.6-28.1,11.8c-17.3,10.8-36.1,24.4-55.8,39.5C93.1,76.7,74.3,92,59.1,106.9c-13.1,12.9-22.9,24.7-22.8,34.8
		c0.1,8.6,10.6,16.3,25.1,21.8c17.8,6.8,40.2,12.4,63.7,20.4c50.7,17.3,98.1,45.3,112.2,81.1c13.1,33.5-6.1,70.6-41.8,84.7
		c-16.4,6.5-36.3,7.8-52.7,3.4c-16.6-4.6-30.3-15-37.5-27.7c-15.4-27.2-2-62.2,29-84.4c30.7-21.9,75.4-30.5,117-35.7
		c39.3-4.9,76.7-10.1,106.7-23.2c29.5-12.9,51.4-31.2,73.6-44.6c17.3-10.5,37.4-13.9,52.3-7.4c18.5,8.1,35.2,22.7,54.7,37.6
		c20,15.3,40.8,30.7,51.2,49.3c10.5,18.8,7.9,41.7-3.2,63.7c-5.6,11.1-12.6,21.3-19.1,30.9c-5.8,8.4-11.1,15.5-12.2,21.5
		c-0.8,4.2,2.6,8.2,8.5,10.4c7.8,2.9,18.8,4.7,31.6,7.6c5.1,1.2,10.4,2.5,15.6,4"/>
	<path fill="none" stroke="#6A69B0" stroke-width="0.1" d="M118.4,84.2c26.2-15.5,47-32.6,62.5-48.3c6.5-6.6,11.7-12.6,14.9-17.7
		c2.5-3.9,4-7.2,2.5-8.8c-2.8-2.9-15.3,3.4-28.7,11.7C152.1,32,133,45.7,113,60.9c-20.4,15.5-39.5,30.7-54.9,45.7
		C44.8,119.5,35,131.3,35,141.4c0.1,8.6,10.7,16.2,25.3,21.7c18,6.7,40.6,12.3,64.5,20.3c51.3,17.3,99.3,45.4,113.6,81.6
		c13.3,33.8-6.2,71.2-42.3,85.5c-16.7,6.6-36.8,7.9-53.4,3.4c-16.9-4.6-30.8-15.1-38.2-28c-15.7-27.4-2.4-62.8,28.8-85.2
		c30.9-22.1,76-30.5,117.9-35.5c39.6-4.7,77.3-9.6,107.5-22.7c29.7-12.9,51.6-31.3,73.7-45c17.2-10.7,37.2-14.5,51.7-8
		c18.2,8.1,34.6,22.8,53.8,37.8c19.9,15.5,40.5,31,51.1,49.7c10.6,18.8,8.4,41.7-2.4,63.7c-5.4,11.1-12.3,21.4-18.8,30.9
		c-5.7,8.4-11,15.5-12.1,21.6c-0.8,4.3,2.5,8.3,8.4,10.5c7.7,2.9,18.6,4.7,31.3,7.7c5.1,1.2,10.3,2.5,15.6,4"/>
	<path fill="none" stroke="#6A69B0" stroke-width="0.1" d="M119.4,84.9c26.3-15.7,47.2-33,62.8-48.9c6.5-6.8,11.6-12.8,14.9-18
		c2.5-4,3.9-7.4,2.4-9c-2.9-3-15.6,3.3-29.3,11.6c-17.8,10.9-37.2,24.6-57.4,39.8c-20.6,15.5-40,30.9-55.6,45.9
		c-13.5,12.9-23.5,24.8-23.5,34.8c0.1,8.5,10.9,16.1,25.6,21.5c18.2,6.7,41.1,12.2,65.2,20.2c51.9,17.3,100.5,45.6,114.9,82
		c13.4,34.1-6.3,71.9-42.9,86.3c-16.9,6.7-37.3,8-54.2,3.5c-17.1-4.6-31.3-15.3-38.9-28.3c-16-27.7-2.8-63.4,28.7-85.9
		c31.1-22.2,76.6-30.6,118.9-35.3c39.9-4.5,77.9-9.1,108.3-22.2c29.9-12.8,51.8-31.4,73.9-45.4c17.1-10.9,36.9-15,51.2-8.6
		c18,8,34,22.8,53,37.9c19.7,15.6,40.3,31.3,51,50c10.7,18.8,8.8,41.7-1.7,63.7c-5.3,11.1-12.1,21.4-18.5,30.9
		c-5.7,8.5-10.9,15.6-12,21.7c-0.8,4.3,2.4,8.4,8.2,10.6c7.6,2.9,18.4,4.8,31,7.7c5.1,1.2,10.3,2.6,15.6,4.1"/>
	<path fill="none" stroke="#6A69B0" stroke-width="0.1" d="M120.4,85.4c26.5-15.9,47.5-33.4,63.1-49.5c6.6-6.8,11.7-12.9,14.9-18.2
		c2.5-4.1,3.9-7.5,2.3-9.1c-3-3.1-15.9,3.2-29.8,11.5c-18,10.9-37.7,24.7-58.2,39.9c-20.9,15.6-40.5,31-56.3,46
		c-13.6,12.9-23.8,24.8-23.8,34.9c0,8.5,11,16.1,25.8,21.4c18.4,6.6,41.5,12.1,65.9,20.1c52.5,17.3,101.6,45.8,116.2,82.4
		c13.6,34.4-6.4,72.5-43.4,87.1c-17.1,6.7-37.7,8.1-54.9,3.5c-17.4-4.7-31.8-15.4-39.5-28.5c-16.4-27.9-3.2-64,28.5-86.7
		c31.3-22.3,77.1-30.6,119.8-35.2c40.2-4.3,78.4-8.7,109-21.7c30-12.8,52.1-31.5,74-45.8c9.2-6,18.1-10.7,26.9-12.4
		c7.9-1.5,16.4-0.1,23.8,3.2c17.8,8,33.5,22.9,52.3,38.1c19.5,15.8,40,31.5,50.9,50.3c10.8,18.8,9.3,41.7-1,63.7
		c-5.2,11.1-11.9,21.4-18.2,31c-5.6,8.5-10.8,15.7-12,21.8c-0.8,4.4,2.3,8.5,8,10.7c7.5,3,18.2,4.9,30.7,7.8
		c5.1,1.2,10.3,2.6,15.6,4.1"/>
	<path fill="none" stroke="#6A69B0" stroke-width="0.1" d="M121.3,86c26.6-16.1,47.7-33.7,63.4-50c6.6-6.9,11.7-13.1,14.9-18.5
		c2.5-4.1,3.8-7.6,2.2-9.3c-3.1-3.1-16.3,3-30.4,11.4c-18.3,10.9-38.1,24.7-58.9,40.1c-21.1,15.6-40.9,31.1-57,46.1
		c-13.8,13-24.1,24.8-24.1,34.9c0,8.5,11.1,16,26,21.3c18.6,6.6,42,12,66.6,20.1c53,17.3,102.7,45.9,117.4,82.9
		c13.7,34.6-6.5,73.1-43.9,87.8c-17.3,6.8-38.2,8.2-55.6,3.6c-17.6-4.7-32.2-15.5-40.1-28.8c-16.7-28.1-3.5-64.6,28.4-87.4
		c31.5-22.4,77.7-30.6,120.6-35c40.5-4.1,79-8.3,109.7-21.2c30.2-12.7,52.3-31.6,74.1-46.1c9.2-6.1,18-10.9,26.8-12.7
		c7.8-1.6,16.3-0.3,23.5,3c17.6,7.9,33,23,51.5,38.3c19.3,15.9,39.7,31.8,50.7,50.6c11,18.8,9.7,41.7-0.3,63.7
		c-5.1,11.1-11.7,21.4-17.9,31c-5.6,8.5-10.7,15.7-11.9,21.9c-0.8,4.4,2.2,8.5,7.9,10.9c7.4,3,18,4.9,30.4,7.9
		c5.1,1.2,10.3,2.6,15.6,4.1"/>
	<path fill="none" stroke="#6A69B0" stroke-width="0.1" d="M122.2,86.5c26.8-16.2,48.1-34,63.7-50.6c6.6-7,11.7-13.3,14.9-18.7
		c2.5-4.2,3.8-7.8,2.1-9.5c-3.2-3.2-16.6,2.9-30.9,11.3c-18.5,10.9-38.6,24.8-59.6,40.2C91,75,71.1,90.5,54.8,105.6
		c-13.9,13-24.4,24.8-24.4,34.9c0,8.5,11.2,15.9,26.2,21.2c18.8,6.5,42.3,12,67.2,20c53.5,17.3,103.7,46.1,118.5,83.3
		c13.9,34.9-6.6,73.6-44.4,88.4c-17.5,6.9-38.6,8.3-56.2,3.6c-17.8-4.7-32.7-15.6-40.7-29c-17-28.3-3.8-65.1,28.2-88
		c31.6-22.6,78.2-30.7,121.4-34.9c40.7-4,79.5-7.9,110.4-20.8c30.3-12.7,52.5-31.7,74.3-46.4c9.2-6.2,17.9-11.1,26.6-13
		c7.7-1.7,16.1-0.4,23.3,2.8c17.4,7.9,32.5,23,50.9,38.5c19.1,16.1,39.5,32,50.6,50.9c11.1,18.9,10.1,41.7,0.3,63.7
		c-4.9,11.1-11.4,21.4-17.6,31c-5.5,8.5-10.6,15.8-11.8,22c-0.9,4.4,2.1,8.6,7.8,11c7.3,3,17.9,5,30.1,7.9
		c5.1,1.2,10.3,2.6,15.6,4.1"/>
	<path fill="none" stroke="#6A69B0" stroke-width="0.1" d="M123,87c26.9-16.4,48.2-34.4,63.9-51.1c6.6-7.1,11.7-13.4,14.9-18.9
		c2.4-4.3,3.7-7.9,1.9-9.6c-3.3-3.3-16.9,2.8-31.3,11.3c-18.8,10.9-39,24.8-60.3,40.3C90.6,74.7,70.5,90.2,54,105.4
		c-14.1,13-24.6,24.8-24.7,34.9c0,8.4,11.2,15.9,26.4,21.1c19,6.5,42.7,11.9,67.8,19.9c54,17.2,104.6,46.2,119.6,83.6
		c14,35.1-6.7,74.2-44.8,89.1c-17.7,6.9-39,8.4-56.8,3.6c-18-4.8-33-15.7-41.2-29.2c-17.2-28.5-4.2-65.6,28.1-88.6
		c31.8-22.7,78.7-30.7,122.1-34.8c41-3.8,80-7.5,111-20.4c30.5-12.7,52.7-31.8,74.4-46.8c9.1-6.3,17.8-11.3,26.5-13.3
		c7.6-1.7,15.9-0.6,23,2.6c17.2,7.8,32,23.1,50.2,38.6c19,16.2,39.3,32.3,50.5,51.2c11.2,18.9,10.5,41.7,0.9,63.7
		c-4.8,11.1-11.3,21.4-17.4,31c-5.5,8.6-10.5,15.8-11.8,22.1c-0.9,4.5,2,8.7,7.6,11.1c7.2,3,17.7,5,29.9,8
		c5.1,1.2,10.3,2.6,15.6,4.2"/>
	<path fill="none" stroke="#6A69B0" stroke-width="0.1" d="M123.8,87.5C150.9,71,172.3,52.8,188,36c6.6-7.2,11.7-13.6,14.9-19.1
		c2.4-4.3,3.6-8,1.8-9.8c-3.4-3.3-17.1,2.8-31.8,11.2C154,29.2,133.4,43.1,112,58.6C90.2,74.4,69.9,90,53.3,105.1
		c-14.2,13-24.9,24.9-24.9,34.9c0,8.4,11.3,15.8,26.6,21c19.1,6.5,43.1,11.8,68.4,19.8c54.5,17.2,105.5,46.3,120.6,84
		c14.1,35.3-6.8,74.7-45.3,89.7c-17.9,7-39.4,8.4-57.4,3.7c-18.2-4.8-33.4-15.9-41.7-29.4c-17.5-28.7-4.5-66.1,28-89.2
		c32-22.8,79.1-30.7,122.9-34.6c41.2-3.7,80.4-7.2,111.6-20c30.6-12.6,52.8-31.9,74.5-47.1c9.1-6.4,17.7-11.5,26.3-13.6
		c7.5-1.8,15.8-0.7,22.7,2.5c17.1,7.8,31.6,23.1,49.6,38.7c18.8,16.3,39,32.5,50.4,51.5c11.3,18.9,10.9,41.7,1.4,63.7
		c-4.7,11.1-11.1,21.4-17.1,31.1c-5.4,8.6-10.4,15.9-11.7,22.2c-0.9,4.5,1.9,8.7,7.5,11.1c7.1,3.1,17.5,5.1,29.6,8
		c5.1,1.2,10.3,2.6,15.5,4.2"/>
	<path fill="none" stroke="#6A69B0" stroke-width="0.1" d="M124.5,88c27.2-16.6,48.7-35,64.4-52c6.7-7.2,11.7-13.7,14.9-19.3
		c2.4-4.4,3.6-8.1,1.7-9.9c-3.5-3.4-17.5,2.7-32.2,11.1c-19.2,10.9-39.9,24.9-61.5,40.5c-22,15.8-42.5,31.4-59.2,46.6
		c-14.3,13.1-25.1,24.9-25.2,34.9c0,8.4,11.4,15.8,26.8,20.9c19.3,6.4,43.4,11.7,69,19.7c54.9,17.2,106.4,46.4,121.6,84.3
		c14.2,35.6-6.9,75.1-45.7,90.3c-18.1,7-39.8,8.5-58,3.7c-18.4-4.8-33.8-16-42.2-29.6c-17.7-28.9-4.7-66.5,27.9-89.8
		c32.1-22.9,79.6-30.8,123.6-34.5c41.4-3.5,80.9-6.8,112.1-19.6c30.7-12.6,53-32,74.6-47.4c9.1-6.5,17.6-11.7,26.2-13.9
		c7.4-1.9,15.6-0.9,22.5,2.3c16.9,7.8,31.2,23.2,49,38.9c18.7,16.5,38.8,32.7,50.3,51.7c11.4,18.9,11.2,41.7,2,63.7
		c-4.6,11.1-10.9,21.4-16.9,31.1c-5.4,8.6-10.4,15.9-11.6,22.3c-0.9,4.5,1.9,8.8,7.4,11.2c7.1,3.1,17.4,5.1,29.4,8.1
		c5.1,1.2,10.3,2.6,15.5,4.2"/>
	<path fill="none" stroke="#6A69B0" stroke-width="0.1" d="M125.2,88.4c27.3-16.8,48.9-35.3,64.6-52.4c6.7-7.3,11.7-13.8,14.9-19.5
		c2.4-4.4,3.5-8.2,1.6-10.1c-3.6-3.5-17.6,2.6-32.6,11c-19.3,11-40.2,25-62,40.6C89.6,73.9,68.9,89.5,52,104.8
		c-14.4,13-25.3,24.9-25.4,34.9c0,8.4,11.5,15.7,27,20.8c19.5,6.4,43.8,11.7,69.5,19.7c55.4,17.2,107.2,46.6,122.5,84.6
		c14.3,35.7-7,75.6-46.1,90.8c-18.2,7.1-40.1,8.5-58.5,3.7c-18.6-4.9-34.1-16.1-42.6-29.8c-17.9-29.1-5-66.9,27.8-90.3
		c32.3-22.9,80-30.8,124.2-34.4c41.6-3.4,81.3-6.5,112.6-19.3c30.8-12.6,53.2-32.1,74.8-47.6c9.1-6.5,17.5-11.9,26.1-14.2
		c7.3-1.9,15.5-1,22.3,2.1c16.7,7.7,30.8,23.2,48.5,39c18.5,16.6,38.7,32.9,50.2,51.9c11.5,18.9,11.5,41.7,2.5,63.7
		c-4.6,11.1-10.7,21.5-16.7,31.1c-5.3,8.6-10.3,16-11.6,22.3c-0.9,4.5,1.8,8.8,7.3,11.3c7,3.1,17.3,5.1,29.2,8.1
		c5.1,1.3,10.3,2.7,15.5,4.2"/>
	<path fill="none" stroke="#6A69B0" stroke-width="0.1" d="M125.9,88.8C153.3,71.9,175,53.3,190.7,36c6.7-7.3,11.7-14,14.9-19.7
		c2.4-4.5,3.5-8.3,1.6-10.2c-3.6-3.5-17.9,2.5-33,11c-19.5,11-40.5,25.1-62.5,40.7c-22.4,15.9-43.2,31.6-60.2,46.8
		c-14.5,13.1-25.5,24.9-25.6,34.9c-0.1,8.4,11.6,15.7,27.1,20.7c19.6,6.4,44.1,11.6,70,19.6c55.7,17.2,107.9,46.7,123.4,84.9
		c14.4,35.9-7.1,76-46.5,91.3c-18.4,7.1-40.4,8.6-58.9,3.8c-18.7-4.9-34.4-16.2-43-30c-18.1-29.2-5.3-67.3,27.7-90.8
		c32.3-23,80.4-30.8,124.8-34.3c41.8-3.3,81.6-6.2,113.1-19c30.9-12.6,53.3-32.1,74.9-47.9c9-6.6,17.4-12,26-14.4
		c7.2-2,15.4-1.1,22.1,2c16.6,7.7,30.4,23.2,47.9,39.1c18.4,16.7,38.5,33.1,50.1,52.1c11.5,18.9,11.8,41.7,2.9,63.7
		c-4.5,11.1-10.6,21.5-16.5,31.1c-5.3,8.7-10.2,16-11.5,22.4c-0.9,4.6,1.7,8.9,7.2,11.4c6.9,3.1,17.1,5.2,29,8.1
		c5.1,1.3,10.3,2.7,15.5,4.2"/>
	<path fill="none" stroke="#6A69B0" stroke-width="0.1" d="M126.5,89.2c27.5-17,49.3-35.7,65-53.2c6.7-7.4,11.8-14.1,14.9-19.8
		c2.4-4.5,3.4-8.4,1.5-10.3c-3.8-3.5-18.1,2.5-33.3,10.9c-19.7,10.9-40.9,25.1-63,40.8C89,73.4,68,89.1,50.9,104.4
		c-14.6,13.1-25.7,24.9-25.8,34.9C25,147.7,36.7,155,52.4,160c19.7,6.3,44.3,11.6,70.4,19.6c56.1,17.2,108.6,46.8,124.2,85.2
		c14.5,36.1-7.2,76.4-46.8,91.8c-18.5,7.1-40.7,8.6-59.4,3.8c-18.9-4.9-34.7-16.2-43.4-30.2c-18.4-29.4-5.5-67.7,27.6-91.2
		c32.5-23.1,80.7-30.9,125.3-34.2c42-3.1,82-5.9,113.6-18.7c31-12.5,53.4-32.2,74.9-48.1c9-6.7,17.4-12.2,25.9-14.6
		c7.2-2,15.3-1.2,21.9,1.9c16.5,7.7,30.1,23.3,47.5,39.2c18.3,16.8,38.3,33.2,50,52.3c11.6,18.9,12.1,41.7,3.4,63.7
		c-4.4,11.1-10.4,21.5-16.3,31.1c-5.2,8.7-10.2,16.1-11.5,22.5c-0.9,4.6,1.7,8.9,7.1,11.5c6.8,3.2,17,5.2,28.8,8.2
		c5.1,1.3,10.3,2.7,15.5,4.2"/>
	<path fill="none" stroke="#6A69B0" stroke-width="0.1" d="M127.1,89.5c27.6-17.1,49.4-36,65.2-53.5c6.7-7.5,11.9-14.2,14.9-20
		c2.4-4.5,3.4-8.5,1.4-10.4C204.7,2,190.2,8,174.9,16.4c-19.9,10.9-41.2,25.1-63.4,40.8c-22.7,15.9-43.8,31.7-61,47
		c-14.7,13.1-25.9,24.9-26,34.9c-0.1,8.3,11.7,15.6,27.4,20.6c19.8,6.3,44.6,11.5,70.8,19.5c56.4,17.2,109.3,46.8,124.9,85.5
		c14.6,36.3-7.2,76.7-47.1,92.2c-18.6,7.2-41,8.7-59.8,3.8c-19-4.9-35-16.3-43.8-30.3c-18.5-29.5-5.7-68,27.5-91.7
		c32.6-23.2,81-30.9,125.8-34.1c42.2-3,82.3-5.7,114-18.4c31.1-12.5,53.6-32.3,75-48.3c9-6.7,17.3-12.3,25.8-14.8
		c7.1-2.1,15.2-1.3,21.7,1.7c16.4,7.7,29.7,23.3,47,39.3c18.2,16.9,38.1,33.4,50,52.5c11.7,19,12.4,41.7,3.8,63.7
		c-4.3,11.1-10.3,21.5-16.1,31.2c-5.2,8.7-10.1,16.1-11.4,22.5c-0.9,4.6,1.6,9,7,11.5c6.8,3.2,16.9,5.2,28.6,8.2
		c5.1,1.3,10.3,2.7,15.5,4.3"/>
	<path fill="none" stroke="#6A69B0" stroke-width="0.1" d="M127.6,89.8c27.7-17.2,49.5-36.2,65.4-53.9c6.7-7.5,11.9-14.3,14.9-20.1
		c2.4-4.6,3.4-8.6,1.3-10.5c-3.9-3.6-18.5,2.3-34,10.8c-20,10.9-41.4,25.2-63.8,40.9c-22.8,16-44.1,31.7-61.4,47.1
		c-14.9,13.1-26,24.9-26.2,34.9c-0.1,8.3,11.7,15.5,27.6,20.5c19.9,6.3,44.8,11.5,71.2,19.4c56.7,17.2,109.9,46.9,125.6,85.7
		c14.7,36.4-7.3,77.1-47.4,92.6c-18.7,7.2-41.2,8.7-60.2,3.8c-19.2-5-35.3-16.4-44.1-30.5c-18.7-29.6-5.9-68.4,27.4-92.1
		c32.7-23.2,81.3-30.9,126.3-34c42.4-2.9,82.6-5.4,114.4-18.1c31.2-12.5,53.7-32.3,75.1-48.5c9-6.8,17.2-12.4,25.7-15
		c7-2.2,15.1-1.4,21.5,1.6c16.2,7.6,29.4,23.3,46.6,39.4c18.1,16.9,38,33.5,49.9,52.7c11.8,19,12.6,41.7,4.1,63.7
		c-4.3,11.1-10.2,21.5-16,31.2c-5.2,8.7-10.1,16.1-11.4,22.6c-0.9,4.6,1.6,9,6.9,11.6c6.7,3.2,16.8,5.3,28.5,8.2
		c5.1,1.3,10.2,2.7,15.5,4.3"/>
	<path fill="none" stroke="#6A69B0" stroke-width="0.1" d="M128,90.1c27.7-17.3,49.7-36.4,65.5-54.1c6.7-7.6,11.7-14.4,14.9-20.3
		c2.3-4.6,3.3-8.6,1.3-10.6c-3.9-3.7-18.7,2.3-34.2,10.8c-20.1,11-41.7,25.2-64.2,41C88.3,72.9,67,88.7,49.5,104
		c-14.9,13.1-26.1,24.9-26.3,35c-0.1,8.3,11.8,15.5,27.7,20.5c20,6.3,45.1,11.4,71.6,19.4c57,17.2,110.4,47,126.2,85.9
		c14.7,36.5-7.4,77.4-47.7,92.9c-18.9,7.3-41.5,8.8-60.5,3.8c-19.3-5-35.4-16.5-44.4-30.6c-18.8-29.7-6-68.7,27.4-92.4
		c32.8-23.3,81.6-30.9,126.8-33.9c42.5-2.8,82.9-5.2,114.7-17.9c31.3-12.5,53.8-32.4,75.2-48.7c9-6.8,17.2-12.5,25.6-15.2
		c7-2.2,15-1.5,21.4,1.5c16.1,7.6,29.2,23.4,46.2,39.5c18,17,37.9,33.7,49.8,52.9c11.8,19,12.8,41.7,4.5,63.7
		c-4.2,11.1-10.1,21.5-15.8,31.2c-5.1,8.7-10,16.2-11.4,22.6c-0.9,4.6,1.5,9.1,6.9,11.6c6.7,3.2,16.7,5.3,28.4,8.3
		c5.1,1.3,10.2,2.7,15.5,4.3"/>
	<path fill="none" stroke="#6A69B0" stroke-width="0.1" d="M128.4,90.4C156.3,73,178.3,53.9,194.1,36c6.8-7.6,11.9-14.4,14.9-20.4
		c2.4-4.6,3.3-8.7,1.2-10.7c-4-3.7-18.9,2.2-34.5,10.7c-20.2,11-41.9,25.3-64.5,41c-23,16-44.4,31.9-62,47.2
		c-14.9,13.1-26.3,25-26.5,35c-0.1,8.3,11.8,15.5,27.8,20.4c20.1,6.3,45.2,11.4,71.9,19.4c57.3,17.2,110.9,47.1,126.7,86.1
		c14.8,36.7-7.4,77.7-47.9,93.3c-18.9,7.3-41.7,8.8-60.8,3.9c-19.4-5-35.7-16.5-44.7-30.7c-19-29.8-6.2-68.9,27.3-92.7
		c32.9-23.3,81.9-30.9,127.1-33.9c42.6-2.8,83.1-5,115-17.7c31.4-12.5,53.9-32.4,75.3-48.9c9-6.9,17.1-12.6,25.5-15.3
		c6.9-2.2,14.9-1.6,21.2,1.4c16,7.6,28.9,23.4,45.9,39.6c17.9,17.1,37.7,33.8,49.8,53c11.9,19,13,41.7,4.8,63.7
		c-4.1,11.1-10,21.5-15.7,31.2c-5.1,8.7-10,16.2-11.3,22.7c-0.9,4.7,1.5,9.1,6.8,11.7c6.6,3.2,16.6,5.3,28.2,8.3
		c5.1,1.3,10.2,2.7,15.5,4.3"/>
	<path fill="none" stroke="#6A69B0" stroke-width="0.1" d="M128.8,90.6c27.9-17.4,49.9-36.7,65.8-54.6c6.8-7.6,11.8-14.5,14.9-20.5
		c2.3-4.7,3.3-8.7,1.2-10.7c-4-3.8-18.9,2.2-34.7,10.7c-20.3,11-42.1,25.3-64.8,41.1C88,72.6,66.5,88.4,48.8,103.8
		c-15,13.1-26.4,25-26.6,35c-0.1,8.3,11.9,15.4,27.9,20.4c20.2,6.2,45.4,11.3,72.1,19.3c57.5,17.2,111.4,47.2,127.2,86.3
		c14.8,36.8-7.5,77.9-48.1,93.6c-19,7.3-41.9,8.8-61.1,3.9c-19.5-5-35.8-16.6-44.9-30.8c-19.1-29.9-6.4-69.1,27.2-93
		c32.9-23.4,82.1-31,127.5-33.8c42.7-2.7,83.3-4.9,115.3-17.5c31.4-12.4,54-32.5,75.3-49c9-7,17.1-12.7,25.5-15.5
		c6.9-2.3,14.8-1.6,21.1,1.3c16,7.6,28.7,23.4,45.6,39.6c17.8,17.2,37.6,33.9,49.7,53.1c11.9,19,13.2,41.7,5,63.7
		c-4.1,11.1-9.9,21.5-15.6,31.2c-5.1,8.7-10,16.2-11.3,22.7c-1,4.7,1.5,9.1,6.7,11.7c6.6,3.2,16.5,5.3,28.1,8.3
		c5,1.3,10.2,2.7,15.5,4.3"/>
	<path fill="none" stroke="#6A69B0" stroke-width="0.1" d="M129.2,90.8C157.1,73.3,179.2,54,195,36c6.7-7.7,11.9-14.6,14.9-20.6
		c2.4-4.7,3.3-8.8,1.1-10.8c-4.1-3.8-19.1,2.1-34.9,10.6c-20.3,11-42.3,25.3-65.1,41.1c-23.2,16.1-44.8,31.9-62.5,47.3
		c-15.1,13.1-26.5,25-26.7,35c-0.1,8.3,11.9,15.4,28,20.3c20.3,6.2,45.6,11.3,72.4,19.3c57.7,17.2,111.7,47.2,127.7,86.4
		c14.9,36.9-7.5,78.1-48.3,93.8c-19.1,7.3-42,8.9-61.4,3.9c-19.6-5-36-16.6-45.2-30.9c-19.2-30-6.5-69.3,27.1-93.3
		c33-23.4,82.3-31,127.8-33.8c42.8-2.6,83.5-4.7,115.6-17.3c31.5-12.4,54.1-32.5,75.4-49.1c8.9-7,17.1-12.8,25.4-15.6
		c6.9-2.3,14.8-1.7,21,1.3c15.9,7.5,28.5,23.4,45.3,39.7c17.8,17.2,37.5,34,49.7,53.2c11.9,19,13.3,41.7,5.3,63.7
		c-4.1,11.1-9.8,21.5-15.5,31.2c-5.1,8.8-9.9,16.3-11.3,22.8c-1,4.7,1.4,9.1,6.7,11.8c6.6,3.3,16.5,5.4,28,8.3
		c5,1.3,10.2,2.7,15.5,4.3"/>
	<path fill="none" stroke="#6A69B0" stroke-width="0.1" d="M129.4,91c28-17.5,50.1-36.9,66-55c6.8-7.7,11.8-14.6,14.9-20.7
		c2.3-4.7,3.3-8.8,1.1-10.8c-4.1-3.8-19.2,2.1-35,10.6c-20.5,11-42.5,25.3-65.3,41.2c-23.3,16.1-44.9,32-62.7,47.4
		c-15.1,13.1-26.6,25-26.8,35c-0.1,8.3,12,15.4,28,20.3c20.4,6.2,45.7,11.3,72.6,19.3c57.9,17.2,112.1,47.3,128.1,86.6
		c14.9,36.9-7.6,78.3-48.5,94c-19.2,7.4-42.2,8.9-61.6,3.9c-19.6-5-36.1-16.7-45.3-31c-19.3-30.1-6.5-69.5,27.1-93.5
		c33.1-23.5,82.5-31,128.1-33.7c42.9-2.6,83.7-4.6,115.8-17.2c31.5-12.4,54.1-32.6,75.4-49.2c8.9-7,17-12.9,25.4-15.7
		c6.8-2.3,14.7-1.8,20.9,1.2c15.8,7.5,28.4,23.5,45.1,39.8c17.7,17.3,37.4,34.1,49.6,53.3c12,19,13.5,41.7,5.5,63.7
		c-4,11.1-9.7,21.5-15.4,31.2c-5.1,8.8-9.9,16.3-11.2,22.8c-1,4.7,1.4,9.2,6.7,11.8c6.5,3.3,16.4,5.4,27.9,8.4
		c5,1.3,10.2,2.7,15.4,4.3"/>
	<path fill="none" stroke="#6A69B0" stroke-width="0.1" d="M129.7,91.2c28-17.6,50.2-37,66-55.2c6.7-7.7,11.8-14.7,14.8-20.7
		c2.4-4.7,3.2-8.9,1.1-10.9c-4.1-3.8-19.3,2-35.2,10.6c-20.5,11-42.6,25.3-65.5,41.2c-23.3,16.1-45.1,32-62.9,47.4
		c-15.2,13.1-26.7,25-26.9,35c-0.1,8.2,12,15.4,28.1,20.3c20.4,6.2,45.8,11.3,72.8,19.2c58,17.2,112.4,47.3,128.4,86.7
		c15,37-7.6,78.5-48.7,94.2c-19.2,7.4-42.3,8.9-61.8,3.9c-19.7-5.1-36.2-16.7-45.5-31.1c-19.4-30.1-6.7-69.7,27.1-93.7
		c33.1-23.5,82.6-31,128.3-33.7c43-2.5,83.8-4.5,116-17.1c31.6-12.4,54.2-32.6,75.5-49.3c9-7,17-12.9,25.3-15.8
		c6.8-2.3,14.7-1.8,20.8,1.1c15.8,7.5,28.2,23.5,44.9,39.8c17.7,17.3,37.4,34.1,49.6,53.4c12,19,13.6,41.7,5.7,63.7
		c-4,11.1-9.7,21.5-15.3,31.2c-5,8.8-9.9,16.3-11.2,22.8c-1,4.7,1.4,9.2,6.6,11.8c6.5,3.3,16.4,5.4,27.8,8.4
		c5,1.3,10.2,2.7,15.4,4.3"/>
	<path fill="none" stroke="#6A69B0" stroke-width="0.1" d="M129.9,91.3C158,73.7,180.1,54.2,196,36c6.8-7.7,11.9-14.7,14.8-20.8
		c2.3-4.8,3.2-8.9,1-10.9c-4.1-3.9-19.4,2-35.3,10.6c-20.6,11-42.7,25.3-65.7,41.2c-23.4,16.1-45.2,32-63.1,47.4
		c-15.2,13.1-26.7,25-26.9,35c-0.1,8.2,12,15.4,28.2,20.2C69.5,164.9,95,170,122,178c58.1,17.2,112.6,47.3,128.6,86.8
		c15,37.1-7.6,78.6-48.8,94.4c-19.3,7.4-42.4,8.9-61.9,3.9c-19.7-5.1-36.4-16.7-45.6-31.1c-19.5-30.2-6.7-69.8,27.1-93.8
		c33.1-23.5,82.8-31,128.5-33.6c43.1-2.5,83.9-4.4,116.1-17c31.6-12.4,54.2-32.6,75.5-49.4c8.9-7.1,17-13,25.3-15.9
		c6.8-2.3,14.6-1.8,20.8,1.1c15.7,7.5,28.1,23.5,44.7,39.8c17.6,17.3,37.3,34.2,49.5,53.5c12,19,13.7,41.7,5.8,63.7
		c-4,11.1-9.7,21.5-15.2,31.3c-5,8.8-9.8,16.3-11.2,22.8c-1,4.7,1.3,9.2,6.6,11.9c6.5,3.3,16.3,5.4,27.8,8.4
		c5,1.3,10.2,2.7,15.4,4.3"/>
	<path fill="none" stroke="#6A69B0" stroke-width="0.1" d="M130.1,91.4c28.1-17.6,50.2-37.2,66.2-55.4c6.8-7.8,11.9-14.7,14.8-20.8
		c2.3-4.8,3.2-8.9,1-11c-4.2-3.9-19.4,2-35.4,10.6c-20.6,11-42.8,25.4-65.8,41.3c-23.5,16.1-45.3,32-63.2,47.5
		c-15.2,13.1-26.8,25-27,35c-0.1,8.2,12,15.3,28.2,20.2c20.5,6.2,46,11.2,73.1,19.2c58.2,17.2,112.8,47.4,128.8,86.9
		c15,37.1-7.6,78.7-48.9,94.5c-19.3,7.4-42.5,8.9-62,3.9c-19.8-5.1-36.4-16.7-45.7-31.1c-19.5-30.2-6.8-69.9,27-94
		c33.2-23.5,82.8-31,128.6-33.6c43.1-2.5,84-4.3,116.2-16.9c31.6-12.4,54.3-32.6,75.5-49.5c8.9-7.1,17-13,25.3-15.9
		c6.8-2.4,14.6-1.9,20.7,1.1c15.7,7.5,28,23.5,44.6,39.9c17.6,17.4,37.3,34.2,49.5,53.5c12.1,19,13.8,41.7,5.9,63.7
		c-3.9,11.1-9.6,21.5-15.2,31.3c-5,8.8-9.8,16.3-11.2,22.9c-1,4.7,1.3,9.2,6.6,11.9c6.5,3.3,16.3,5.4,27.7,8.4
		c5,1.3,10.2,2.7,15.4,4.3"/>
	<path fill="none" stroke="#6A69B0" stroke-width="0.1" d="M130.2,91.5c28.1-17.7,50.3-37.2,66.2-55.5c6.8-7.8,11.9-14.7,14.8-20.8
		c2.3-4.8,3.2-8.9,1-11c-4.2-3.9-19.4,2-35.5,10.5c-20.6,11.1-42.8,25.4-65.9,41.3c-23.5,16.1-45.3,32.1-63.2,47.5
		c-15.2,13.2-26.8,25-27,35c-0.1,8.2,12,15.3,28.2,20.2c20.5,6.2,46.1,11.2,73.2,19.2c58.3,17.2,112.9,47.4,129,86.9
		c15,37.1-7.6,78.8-48.9,94.6c-19.3,7.4-42.5,8.9-62.1,3.9c-19.8-5.1-36.5-16.8-45.8-31.2c-19.5-30.3-6.8-70,27-94
		c33.2-23.6,82.9-31,128.7-33.6c43.1-2.4,84.1-4.3,116.3-16.8c31.7-12.4,54.3-32.6,75.5-49.5c8.9-7.1,17-13.1,25.3-16
		c6.7-2.4,14.6-1.9,20.7,1c15.7,7.5,28,23.5,44.5,39.9c17.6,17.4,37.2,34.3,49.5,53.6c12.1,19,13.8,41.7,6,63.7
		c-3.9,11.1-9.6,21.5-15.2,31.3c-5,8.8-9.8,16.3-11.2,22.9c-1,4.7,1.3,9.2,6.5,11.9c6.4,3.3,16.3,5.4,27.7,8.4
		c5,1.3,10.2,2.7,15.4,4.3"/>
	<path fill="none" stroke="#6A69B0" stroke-width="0.1" d="M130.2,91.5c28.1-17.7,50.3-37.2,66.2-55.5c6.7-7.8,11.8-14.8,14.8-20.9
		c2.3-4.8,3.2-8.9,1-11c-4.2-3.9-19.5,2-35.5,10.5c-20.6,11.1-42.8,25.4-66,41.3C87.3,72.1,65.5,88,47.5,103.4
		c-15.2,13.2-26.8,25-27,35c-0.2,8.2,12,15.3,28.2,20.2c20.5,6.2,46.1,11.2,73.2,19.2c58.3,17.2,113,47.4,129.1,87
		c15,37.2-7.7,78.8-49,94.6c-19.3,7.4-42.6,8.9-62.2,3.9c-19.8-5.1-36.5-16.8-45.8-31.2c-19.6-30.3-6.9-70,27-94.1
		c33.2-23.6,82.9-31,128.8-33.6c43.2-2.4,84.1-4.2,116.4-16.8c31.7-12.4,54.3-32.6,75.5-49.5c8.9-7.1,17-13.1,25.2-16
		c6.7-2.4,14.5-1.9,20.7,1c15.7,7.5,27.9,23.5,44.5,39.9c17.5,17.4,37.2,34.3,49.5,53.6c12.1,19.1,13.8,41.7,6.1,63.7
		c-3.9,11.1-9.6,21.5-15.1,31.3c-5,8.8-9.8,16.3-11.2,22.9c-1,4.7,1.3,9.2,6.5,11.9c6.4,3.3,16.3,5.4,27.7,8.4
		c5,1.3,10.2,2.7,15.4,4.3"/>
</g>
</svg>
